<svg width="28" height="28" viewBox="0 0 28 28" fill="none" xmlns="http://www.w3.org/2000/svg">
<g clip-path="url(#clip0_17_98)">
<path d="M12.2499 9.33337H9.9166C9.5946 9.33337 9.33325 9.59472 9.33325 9.91672V16.9167C9.33325 17.2386 9.5946 17.5 9.9166 17.5H12.2499C12.5719 17.5 12.8333 17.2386 12.8333 16.9167V9.91672C12.8333 9.59472 12.5719 9.33337 12.2499 9.33337Z" fill="#2386BC"/>
<path d="M7.5833 12.8333H5.24997C4.92797 12.8333 4.66663 13.0947 4.66663 13.4167V16.9166C4.66663 17.2386 4.92797 17.5 5.24997 17.5H7.5833C7.9053 17.5 8.16665 17.2386 8.16665 16.9166V13.4167C8.16659 13.0947 7.9053 12.8333 7.5833 12.8333Z" fill="#2386BC"/>
<path d="M16.9164 5.83337H14.5831C14.2611 5.83337 13.9998 6.09472 13.9998 6.41672V16.9166C13.9998 17.2386 14.2611 17.5 14.5831 17.5H16.9164C17.2384 17.5 17.4998 17.2386 17.4998 16.9166V6.41672C17.4998 6.09472 17.2384 5.83337 16.9164 5.83337Z" fill="#2386BC"/>
<path d="M27.6579 26.0084L20.6942 19.0446C22.3415 17.0333 23.3331 14.4643 23.3331 11.6667C23.3331 5.23372 18.0995 0.00012207 11.6666 0.00012207C5.23365 0.00012207 0 5.23372 0 11.6667C0 18.0996 5.2336 23.3332 11.6665 23.3332C14.4642 23.3332 17.0331 22.3416 19.0445 20.6942L26.0082 27.658C26.2357 27.8855 26.5344 27.9998 26.8331 27.9998C27.1318 27.9998 27.4304 27.8855 27.6579 27.658C28.1141 27.2019 28.1141 26.4645 27.6579 26.0084ZM11.6665 20.9999C6.52044 20.9999 2.33327 16.8128 2.33327 11.6667C2.33327 6.5205 6.52044 2.3334 11.6665 2.3334C16.8126 2.3334 20.9998 6.52056 20.9998 11.6667C20.9998 16.8128 16.8127 20.9999 11.6665 20.9999Z" fill="#2386BC"/>
</g>
<defs>
<clipPath id="clip0_17_98">
<rect width="28" height="28" fill="white"/>
</clipPath>
</defs>
</svg>
