<svg width="22" height="22" viewBox="0 0 22 22" fill="none" xmlns="http://www.w3.org/2000/svg">
<path fill-rule="evenodd" clip-rule="evenodd" d="M3.87183 10.9487C3.87183 10.4531 4.27362 10.0513 4.76926 10.0513H17.3334C17.829 10.0513 18.2308 10.4531 18.2308 10.9487C18.2308 11.4444 17.829 11.8462 17.3334 11.8462H4.76926C4.27362 11.8462 3.87183 11.4444 3.87183 10.9487Z" fill="#2386BC"/>
<path fill-rule="evenodd" clip-rule="evenodd" d="M10.4168 4.03208C10.7673 3.68161 11.3355 3.68161 11.6859 4.03208L17.968 10.3141C18.3185 10.6646 18.3185 11.2328 17.968 11.5833L11.6859 17.8654C11.3355 18.2158 10.7673 18.2158 10.4168 17.8654C10.0663 17.5149 10.0663 16.9467 10.4168 16.5962L16.0643 10.9487L10.4168 5.30125C10.0663 4.95078 10.0663 4.38255 10.4168 4.03208Z" fill="#2386BC"/>
</svg>
