<svg width="22" height="22" viewBox="0 0 22 22" fill="none" xmlns="http://www.w3.org/2000/svg">
<path fill-rule="evenodd" clip-rule="evenodd" d="M18.1282 10.9487C18.1282 10.4531 17.7264 10.0513 17.2307 10.0513H4.66663C4.17099 10.0513 3.7692 10.4531 3.7692 10.9487C3.7692 11.4443 4.17099 11.8461 4.66663 11.8461H17.2307C17.7264 11.8461 18.1282 11.4443 18.1282 10.9487Z" fill="#2386BC"/>
<path fill-rule="evenodd" clip-rule="evenodd" d="M11.5833 4.03202C11.2329 3.68155 10.6646 3.68155 10.3142 4.03202L4.03212 10.3141C3.68165 10.6645 3.68165 11.2328 4.03212 11.5832L10.3142 17.8653C10.6646 18.2158 11.2329 18.2158 11.5833 17.8653C11.9338 17.5148 11.9338 16.9466 11.5833 16.5961L5.93587 10.9487L11.5833 5.30118C11.9338 4.95071 11.9338 4.38249 11.5833 4.03202Z" fill="#2386BC"/>
</svg>
