<svg width="66" height="65" viewBox="0 0 66 65" fill="none" xmlns="http://www.w3.org/2000/svg">
<g clip-path="url(#clip0_17_65)">
<path d="M65.4863 19.9833C65.4858 18.8718 65.0487 17.8916 64.2222 17.1489L54.3422 8.26777C53.1133 7.16341 51.5638 6.03467 49.3853 6.03467C49.3847 6.03467 49.3837 6.03467 49.383 6.03467C47.2031 6.03543 45.6535 7.16569 44.4253 8.27133L34.5516 17.1592C33.7255 17.9026 33.2892 18.8832 33.2896 19.9947L33.2941 31.4014H26.7369C27.9237 28.9369 28.7502 25.0437 27.822 22.1285C27.1687 20.0768 25.7299 18.7243 23.6613 18.217C23.3973 18.1521 23.1183 18.196 22.8869 18.3386C22.6555 18.481 22.4908 18.7106 22.4298 18.9754C22.3171 19.4645 22.2129 19.9231 22.115 20.3541C20.8951 25.726 20.7384 26.4164 17.3689 28.6186C14.9885 30.1744 14.8196 30.3753 13.3392 32.535C13.1879 32.7556 13.0211 32.9989 12.8344 33.269C12.2349 34.1361 11.468 34.5271 10.3535 34.5369L10.2675 34.5372V34.2939C10.2675 33.029 9.23844 31.9999 7.97335 31.9999H2.79404C1.52908 31.9999 0.5 33.029 0.5 34.2939V56.6711C0.5 57.9362 1.52908 58.9652 2.79404 58.9652H7.97348C9.23844 58.9652 10.2676 57.9362 10.2676 56.6711V55.6301C10.7254 55.7898 11.1831 55.9601 11.6544 56.1361C13.9617 56.9978 16.5768 57.9746 20.4597 57.9746H33.9416C34.5163 57.9746 35.0632 57.8547 35.5598 57.6395C36.0473 57.8587 36.5754 57.9746 37.1168 57.9746H37.1177L61.6882 57.9661C63.7908 57.9652 65.5008 56.254 65.4999 54.1514L65.4863 19.9833ZM8.2364 56.6711C8.2364 56.8136 8.11604 56.934 7.97348 56.934H2.79404C2.6516 56.934 2.53125 56.8136 2.53125 56.6711V34.2939C2.53125 34.1515 2.6516 34.0311 2.79404 34.0311H7.97348C8.11604 34.0311 8.2364 34.1515 8.2364 34.2939V56.6711ZM20.4597 55.9434C16.9439 55.9434 14.6162 55.0739 12.3652 54.2332C11.6856 53.9794 10.9887 53.7192 10.2678 53.4868V36.5684L10.3657 36.5682C12.1398 36.5527 13.5328 35.8312 14.5055 34.4239C14.6939 34.1515 14.8621 33.9061 15.0147 33.6834C16.3799 31.6916 16.3799 31.6916 18.4804 30.3188C22.5374 27.6671 22.8365 26.3495 24.0959 20.8039C24.1146 20.7216 24.1335 20.6381 24.1526 20.5537C24.9896 20.998 25.5608 21.7219 25.8866 22.7447C26.8448 25.754 25.3337 30.3869 24.1514 31.7521C23.8911 32.0526 23.8302 32.4774 23.9953 32.839C24.1606 33.2007 24.5216 33.4327 24.9192 33.4327H36.5303C37.6618 33.4327 38.5824 34.3532 38.5824 35.4847C38.5824 36.6163 37.6618 37.5369 36.5303 37.5369H28.5253C27.9644 37.5369 27.5097 37.9917 27.5097 38.5526C27.5097 39.1135 27.9644 39.5682 28.5253 39.5682H38.2079C39.3394 39.5682 40.2599 40.4887 40.2599 41.6203C40.2599 42.7518 39.3394 43.6725 38.2079 43.6725H28.5253C27.9644 43.6725 27.5097 44.1272 27.5097 44.6881C27.5097 45.249 27.9644 45.7037 28.5253 45.7037H37.1534C38.2849 45.7037 39.2055 46.6243 39.2055 47.7558C39.2055 48.8873 38.2849 49.8079 37.1534 49.8079H28.5253C27.9644 49.8079 27.5097 50.2626 27.5097 50.8235C27.5097 51.3844 27.9644 51.8391 28.5253 51.8391H33.9417C35.0733 51.8391 35.9939 52.7598 35.9939 53.8913C35.9939 55.0228 35.0734 55.9434 33.9417 55.9434H20.4597ZM61.6875 55.9349L37.4698 55.9432C37.8221 55.3398 38.0251 54.6391 38.0251 53.8913C38.0251 53.1389 37.8205 52.4334 37.4642 51.8274C39.5711 51.668 41.2367 49.9027 41.2367 47.7558C41.2367 46.7596 40.8781 45.8455 40.2832 45.136C41.4841 44.4243 42.2912 43.1146 42.2912 41.6203C42.2912 39.9479 41.2805 38.5073 39.8381 37.8765C40.3258 37.2038 40.6136 36.3774 40.6136 35.4847C40.6136 33.2332 38.7818 31.4014 36.5303 31.4014H35.3255L35.321 19.9941C35.3208 19.4598 35.5137 19.0264 35.9107 18.669L45.7843 9.78105C47.1372 8.56319 48.1802 8.06643 49.3839 8.06592H49.3855C50.5882 8.06592 51.6313 8.56218 52.9846 9.77839L62.8646 18.6595C63.2618 19.0166 63.455 19.4499 63.4553 19.9842L63.4688 54.1522C63.4691 55.1348 62.6701 55.9345 61.6875 55.9349ZM55.485 42.1905C55.6338 43.4163 55.3053 44.535 54.5351 45.4256C53.6291 46.4729 52.1237 47.1751 50.4105 47.3721V48.664C50.4105 49.2249 49.9557 49.6796 49.3949 49.6796C48.834 49.6796 48.3792 49.2249 48.3792 48.664V47.3574C45.8422 47.0088 43.8701 45.4046 43.2992 43.1146C43.1635 42.5704 43.4947 42.0192 44.039 41.8834C44.5836 41.7486 45.1344 42.0791 45.2701 42.6232C45.7962 44.733 47.9194 45.437 49.5787 45.3956C51.0033 45.3617 52.3458 44.852 52.9988 44.0969C53.3951 43.6387 53.5489 43.0951 53.4688 42.4353C53.2792 40.8738 51.9766 39.9775 49.2449 39.529C44.8975 38.8151 43.8852 36.6103 43.8017 34.8865C43.6856 32.4979 45.3579 30.4959 47.9628 29.905C48.0994 29.8742 48.2384 29.8474 48.3795 29.8252V28.5042C48.3795 27.9434 48.8342 27.4886 49.3951 27.4886C49.956 27.4886 50.4107 27.9434 50.4107 28.5042V29.8165C52.2702 30.0919 54.1046 31.1691 55.021 33.3521C55.2381 33.8691 54.995 34.4646 54.4778 34.6816C53.9605 34.899 53.3653 34.6556 53.1482 34.1384C52.2673 32.0404 50.1349 31.4955 48.4121 31.8863C47.1103 32.1814 45.7485 33.0989 45.8306 34.7883C45.8563 35.3173 45.9344 36.9272 49.5741 37.5248C50.9226 37.7459 55.0274 38.4199 55.485 42.1905ZM49.3865 19.6533C51.3808 19.6533 53.0034 18.0309 53.0034 16.0364C53.0034 14.042 51.3809 12.4195 49.3865 12.4195C47.392 12.4195 45.7695 14.042 45.7695 16.0364C45.7695 18.0309 47.392 19.6533 49.3865 19.6533ZM49.3865 14.4506C50.2608 14.4506 50.9721 15.1621 50.9721 16.0363C50.9721 16.9105 50.2608 17.6219 49.3865 17.6219C48.5121 17.6219 47.8007 16.9105 47.8007 16.0363C47.8007 15.1621 48.5121 14.4506 49.3865 14.4506Z" fill="#2386BC"/>
</g>
<defs>
<clipPath id="clip0_17_65">
<rect width="65" height="65" fill="white" transform="translate(0.5)"/>
</clipPath>
</defs>
</svg>
