<svg width="65" height="65" viewBox="0 0 65 65" fill="none" xmlns="http://www.w3.org/2000/svg">
<path d="M16.25 38.5938C16.5194 38.5938 16.7777 38.4868 16.9682 38.2963C17.1586 38.1058 17.2656 37.8475 17.2656 37.5782C17.2638 36.2268 16.8769 34.9039 16.1502 33.7646C15.4235 32.6252 14.3871 31.7166 13.1625 31.1452C13.6918 30.5628 14.0406 29.8392 14.1665 29.0623C14.2923 28.2855 14.1898 27.4888 13.8714 26.7691C13.553 26.0493 13.0324 25.4376 12.3728 25.0082C11.7133 24.5788 10.9432 24.3502 10.1562 24.3502C9.36925 24.3502 8.59919 24.5788 7.93966 25.0082C7.28013 25.4376 6.75952 26.0493 6.44111 26.7691C6.12269 27.4888 6.02018 28.2855 6.14603 29.0623C6.27187 29.8392 6.62066 30.5628 7.15 31.1452C5.92539 31.7166 4.88902 32.6252 4.16232 33.7646C3.43561 34.9039 3.04869 36.2268 3.04688 37.5782C3.04687 37.8475 3.15388 38.1058 3.34434 38.2963C3.53481 38.4868 3.79314 38.5938 4.0625 38.5938H16.25ZM8.125 28.4375C8.125 28.0358 8.24413 27.6431 8.46733 27.309C8.69052 26.975 9.00776 26.7146 9.37892 26.5609C9.75009 26.4072 10.1585 26.3669 10.5525 26.4453C10.9466 26.5237 11.3085 26.7171 11.5926 27.0012C11.8766 27.2853 12.0701 27.6472 12.1485 28.0413C12.2268 28.4353 12.1866 28.8437 12.0329 29.2149C11.8791 29.586 11.6188 29.9033 11.2848 30.1265C10.9507 30.3496 10.558 30.4688 10.1562 30.4688C9.61753 30.4688 9.10087 30.2548 8.71994 29.8738C8.33901 29.4929 8.125 28.9762 8.125 28.4375ZM10.1562 32.5C11.3265 32.5013 12.4605 32.9061 13.3671 33.6462C14.2736 34.3862 14.8973 35.4162 15.1328 36.5625H5.17969C5.41523 35.4162 6.03886 34.3862 6.94542 33.6462C7.85197 32.9061 8.98599 32.5013 10.1562 32.5Z" fill="#2386BC"/>
<path d="M32.5 43.6719C31.6965 43.6719 30.9111 43.9101 30.243 44.3565C29.5749 44.8029 29.0542 45.4374 28.7467 46.1797C28.4393 46.922 28.3588 47.7389 28.5156 48.5269C28.6723 49.315 29.0592 50.0388 29.6274 50.607C30.1955 51.1751 30.9194 51.5621 31.7074 51.7188C32.4955 51.8756 33.3123 51.7951 34.0547 51.4876C34.797 51.1802 35.4315 50.6595 35.8778 49.9914C36.3242 49.3233 36.5625 48.5379 36.5625 47.7344C36.5625 46.6569 36.1345 45.6236 35.3726 44.8618C34.6108 44.0999 33.5774 43.6719 32.5 43.6719ZM32.5 49.7656C32.0983 49.7656 31.7055 49.6465 31.3715 49.4233C31.0375 49.2001 30.7771 48.8829 30.6234 48.5117C30.4696 48.1405 30.4294 47.7321 30.5078 47.3381C30.5862 46.9441 30.7796 46.5821 31.0637 46.2981C31.3478 46.014 31.7097 45.8205 32.1037 45.7422C32.4977 45.6638 32.9062 45.704 33.2773 45.8577C33.6485 46.0115 33.9657 46.2718 34.1889 46.6059C34.4121 46.9399 34.5313 47.3326 34.5313 47.7344C34.5313 48.2731 34.3172 48.7898 33.9363 49.1707C33.5554 49.5516 33.0387 49.7656 32.5 49.7656Z" fill="#2386BC"/>
<path d="M57.85 31.1452C58.3793 30.5628 58.7281 29.8392 58.854 29.0623C58.9798 28.2855 58.8773 27.4888 58.5589 26.7691C58.2405 26.0493 57.7199 25.4376 57.0603 25.0082C56.4008 24.5788 55.6307 24.3502 54.8438 24.3502C54.0568 24.3502 53.2867 24.5788 52.6272 25.0082C51.9676 25.4376 51.447 26.0493 51.1286 26.7691C50.8102 27.4888 50.7077 28.2855 50.8335 29.0623C50.9594 29.8392 51.3082 30.5628 51.8375 31.1452C50.6129 31.7166 49.5765 32.6252 48.8498 33.7646C48.1231 34.9039 47.7362 36.2268 47.7344 37.5782C47.7344 37.8475 47.8414 38.1058 48.0318 38.2963C48.2223 38.4868 48.4806 38.5938 48.75 38.5938H60.9375C61.2069 38.5938 61.4652 38.4868 61.6557 38.2963C61.8461 38.1058 61.9531 37.8475 61.9531 37.5782C61.9513 36.2268 61.5644 34.9039 60.8377 33.7646C60.111 32.6252 59.0746 31.7166 57.85 31.1452ZM52.8125 28.4375C52.8125 28.0358 52.9316 27.6431 53.1548 27.309C53.378 26.975 53.6953 26.7146 54.0664 26.5609C54.4376 26.4072 54.846 26.3669 55.24 26.4453C55.6341 26.5237 55.996 26.7171 56.2801 27.0012C56.5641 27.2853 56.7576 27.6472 56.836 28.0413C56.9143 28.4353 56.8741 28.8437 56.7204 29.2149C56.5666 29.586 56.3063 29.9033 55.9723 30.1265C55.6382 30.3496 55.2455 30.4688 54.8438 30.4688C54.305 30.4688 53.7884 30.2548 53.4074 29.8738C53.0265 29.4929 52.8125 28.9762 52.8125 28.4375ZM49.8672 36.5625C50.1003 35.4146 50.7231 34.3825 51.6301 33.6412C52.537 32.8999 53.6724 32.4949 54.8438 32.4949C56.0151 32.4949 57.1505 32.8999 58.0574 33.6412C58.9644 34.3825 59.5872 35.4146 59.8203 36.5625H49.8672Z" fill="#2386BC"/>
<path d="M10.1563 43.6719C10.1563 43.0693 9.97756 42.4802 9.64276 41.9791C9.30797 41.4781 8.83211 41.0875 8.27537 40.8569C7.71862 40.6263 7.106 40.566 6.51496 40.6835C5.92392 40.8011 5.38102 41.0913 4.95491 41.5174C4.5288 41.9435 4.23861 42.4864 4.12105 43.0775C4.00348 43.6685 4.06382 44.2811 4.29443 44.8379C4.52504 45.3946 4.91557 45.8705 5.41662 46.2053C5.91768 46.5401 6.50676 46.7188 7.10938 46.7188C7.91746 46.7188 8.69244 46.3977 9.26384 45.8263C9.83524 45.2549 10.1563 44.48 10.1563 43.6719ZM7.10938 44.6875C6.9085 44.6875 6.71214 44.6279 6.54513 44.5163C6.37811 44.4047 6.24793 44.2461 6.17106 44.0605C6.09419 43.875 6.07408 43.6707 6.11327 43.4737C6.15245 43.2767 6.24918 43.0958 6.39122 42.9537C6.53326 42.8117 6.71423 42.715 6.91124 42.6758C7.10825 42.6366 7.31246 42.6567 7.49804 42.7336C7.68362 42.8104 7.84224 42.9406 7.95384 43.1076C8.06544 43.2746 8.125 43.471 8.125 43.6719C8.125 43.9412 8.018 44.1996 7.82753 44.39C7.63707 44.5805 7.37874 44.6875 7.10938 44.6875Z" fill="#2386BC"/>
<path d="M11.1719 16.25C11.7745 16.25 12.3636 16.0713 12.8646 15.7365C13.3657 15.4017 13.7562 14.9259 13.9868 14.3691C14.2174 13.8124 14.2778 13.1997 14.1602 12.6087C14.0426 12.0177 13.7525 11.4748 13.3263 11.0487C12.9002 10.6225 12.3573 10.3324 11.7663 10.2148C11.1753 10.0972 10.5626 10.1576 10.0059 10.3882C9.44914 10.6188 8.97329 11.0093 8.63849 11.5104C8.3037 12.0114 8.125 12.6005 8.125 13.2031C8.125 14.0112 8.44601 14.7862 9.01741 15.3576C9.58881 15.929 10.3638 16.25 11.1719 16.25ZM11.1719 12.1875C11.3727 12.1875 11.5691 12.2471 11.7361 12.3587C11.9031 12.4703 12.0333 12.6289 12.1102 12.8145C12.1871 13 12.2072 13.2043 12.168 13.4013C12.1288 13.5983 12.0321 13.7792 11.89 13.9213C11.748 14.0633 11.567 14.16 11.37 14.1992C11.173 14.2384 10.9688 14.2183 10.7832 14.1414C10.5976 14.0646 10.439 13.9344 10.3274 13.7674C10.2158 13.6004 10.1562 13.404 10.1562 13.2031C10.1562 12.9338 10.2633 12.6754 10.4537 12.485C10.6442 12.2945 10.9025 12.1875 11.1719 12.1875Z" fill="#2386BC"/>
<path d="M53.8281 16.25C54.4307 16.25 55.0198 16.0713 55.5209 15.7365C56.0219 15.4017 56.4125 14.9259 56.6431 14.3691C56.8737 13.8124 56.934 13.1997 56.8165 12.6087C56.6989 12.0177 56.4087 11.4748 55.9826 11.0487C55.5565 10.6225 55.0136 10.3324 54.4225 10.2148C53.8315 10.0972 53.2189 10.1576 52.6621 10.3882C52.1054 10.6188 51.6295 11.0093 51.2947 11.5104C50.9599 12.0114 50.7812 12.6005 50.7812 13.2031C50.7812 14.0112 51.1023 14.7862 51.6737 15.3576C52.2451 15.929 53.02 16.25 53.8281 16.25ZM53.8281 12.1875C54.029 12.1875 54.2254 12.2471 54.3924 12.3587C54.5594 12.4703 54.6896 12.6289 54.7664 12.8145C54.8433 13 54.8634 13.2043 54.8242 13.4013C54.785 13.5983 54.6883 13.7792 54.5463 13.9213C54.4042 14.0633 54.2233 14.16 54.0263 14.1992C53.8293 14.2384 53.625 14.2183 53.4395 14.1414C53.2539 14.0646 53.0953 13.9344 52.9837 13.7674C52.8721 13.6004 52.8125 13.404 52.8125 13.2031C52.8125 12.9338 52.9195 12.6754 53.11 12.485C53.3004 12.2945 53.5588 12.1875 53.8281 12.1875Z" fill="#2386BC"/>
<path d="M57.8906 40.625C57.288 40.625 56.6989 40.8037 56.1979 41.1385C55.6968 41.4733 55.3063 41.9491 55.0757 42.5059C54.8451 43.0626 54.7847 43.6753 54.9023 44.2663C55.0199 44.8573 55.31 45.4002 55.7362 45.8263C56.1623 46.2525 56.7052 46.5426 57.2962 46.6602C57.8872 46.7778 58.4999 46.7174 59.0566 46.4868C59.6134 46.2562 60.0892 45.8657 60.424 45.3646C60.7588 44.8636 60.9375 44.2745 60.9375 43.6719C60.9375 42.8638 60.6165 42.0888 60.0451 41.5174C59.4737 40.946 58.6987 40.625 57.8906 40.625ZM57.8906 44.6875C57.6898 44.6875 57.4934 44.6279 57.3264 44.5163C57.1594 44.4047 57.0292 44.2461 56.9523 44.0605C56.8754 43.875 56.8553 43.6707 56.8945 43.4737C56.9337 43.2767 57.0304 43.0958 57.1725 42.9537C57.3145 42.8117 57.4955 42.715 57.6925 42.6758C57.8895 42.6366 58.0937 42.6567 58.2793 42.7336C58.4649 42.8104 58.6235 42.9406 58.7351 43.1076C58.8467 43.2746 58.9063 43.471 58.9063 43.6719C58.9063 43.9412 58.7992 44.1996 58.6088 44.39C58.4183 44.5805 58.16 44.6875 57.8906 44.6875Z" fill="#2386BC"/>
<path d="M24.375 31.4844C24.375 32.0231 24.589 32.5398 24.9699 32.9207C25.3509 33.3016 25.8675 33.5156 26.4062 33.5156V35.5469C26.4072 35.9361 26.52 36.3169 26.7312 36.6439C26.9424 36.9709 27.2432 37.2303 27.5976 37.3913L28.275 40.1009C28.3847 40.5407 28.6383 40.9312 28.9956 41.2102C29.3528 41.4892 29.7931 41.6407 30.2463 41.6406H34.7537C35.2069 41.6407 35.6472 41.4892 36.0044 41.2102C36.3617 40.9312 36.6153 40.5407 36.725 40.1009L37.4024 37.3913C37.7568 37.2303 38.0576 36.9709 38.2688 36.6439C38.48 36.3169 38.5928 35.9361 38.5938 35.5469V33.5156C39.1325 33.5156 39.6491 33.3016 40.0301 32.9207C40.411 32.5398 40.625 32.0231 40.625 31.4844C40.625 29.6045 41.6335 28.3745 42.9102 26.8125C44.6062 24.7437 46.7188 22.166 46.7188 17.2656C46.7188 13.4946 45.2207 9.87798 42.5542 7.21145C39.8876 4.54492 36.271 3.04688 32.5 3.04688C28.729 3.04688 25.1124 4.54492 22.4458 7.21145C19.7793 9.87798 18.2813 13.4946 18.2812 17.2656C18.2813 22.167 20.3937 24.7447 22.0909 26.8125C23.3675 28.3745 24.375 29.6034 24.375 31.4844ZM28.4375 21.3281H27.4219C27.221 21.3281 27.0246 21.2686 26.8576 21.157C26.6906 21.0454 26.5604 20.8867 26.4836 20.7012C26.4067 20.5156 26.3866 20.3114 26.4258 20.1144C26.465 19.9173 26.5617 19.7364 26.7037 19.5943C26.8458 19.4523 27.0267 19.3556 27.2237 19.3164C27.4207 19.2772 27.625 19.2973 27.8105 19.3742C27.9961 19.4511 28.1547 19.5812 28.2663 19.7482C28.3779 19.9153 28.4375 20.1116 28.4375 20.3125V21.3281ZM30.4688 23.3594H34.5312V31.4844H30.4688V23.3594ZM34.7537 39.6094H30.2463L29.7385 37.5781H35.2615L34.7537 39.6094ZM36.5625 35.5469H28.4375V33.5156H36.5625V35.5469ZM32.5 5.07812C35.7313 5.08162 38.8292 6.36678 41.114 8.65162C43.3988 10.9365 44.684 14.0344 44.6875 17.2656C44.6875 21.4398 42.9853 23.5188 41.3359 25.5287C39.9892 27.1761 38.5938 28.8803 38.5938 31.4844H36.5625V23.3594H37.5781C38.1807 23.3594 38.7698 23.1807 39.2709 22.8459C39.7719 22.5111 40.1625 22.0352 40.3931 21.4785C40.6237 20.9217 40.684 20.3091 40.5665 19.7181C40.4489 19.127 40.1587 18.5841 39.7326 18.158C39.3065 17.7319 38.7636 17.4417 38.1725 17.3242C37.5815 17.2066 36.9689 17.2669 36.4121 17.4976C35.8554 17.7282 35.3795 18.1187 35.0447 18.6197C34.7099 19.1208 34.5312 19.7099 34.5312 20.3125V21.3281H30.4688V20.3125C30.4688 19.7099 30.2901 19.1208 29.9553 18.6197C29.6205 18.1187 29.1446 17.7282 28.5879 17.4976C28.0311 17.2669 27.4185 17.2066 26.8275 17.3242C26.2364 17.4417 25.6935 17.7319 25.2674 18.158C24.8413 18.5841 24.5511 19.127 24.4335 19.7181C24.316 20.3091 24.3763 20.9217 24.6069 21.4785C24.8375 22.0352 25.2281 22.5111 25.7291 22.8459C26.2302 23.1807 26.8193 23.3594 27.4219 23.3594H28.4375V31.4844H26.4062C26.4062 28.8823 25.0108 27.1791 23.6641 25.5338C22.0157 23.5188 20.3125 21.4409 20.3125 17.2656C20.316 14.0344 21.6012 10.9365 23.886 8.65162C26.1708 6.36678 29.2687 5.08162 32.5 5.07812ZM36.5625 21.3281V20.3125C36.5625 20.1116 36.6221 19.9153 36.7337 19.7482C36.8453 19.5812 37.0039 19.4511 37.1895 19.3742C37.375 19.2973 37.5793 19.2772 37.7763 19.3164C37.9733 19.3556 38.1542 19.4523 38.2963 19.5943C38.4383 19.7364 38.535 19.9173 38.5742 20.1144C38.6134 20.3114 38.5933 20.5156 38.5164 20.7012C38.4396 20.8867 38.3094 21.0454 38.1424 21.157C37.9754 21.2686 37.779 21.3281 37.5781 21.3281H36.5625Z" fill="#2386BC"/>
<path d="M22.0391 51.5094C23.0383 50.728 23.7688 49.6543 24.1287 48.4379C24.4886 47.2216 24.4599 45.9232 24.0466 44.7239C23.6334 43.5246 22.8562 42.4842 21.8234 41.7477C20.7907 41.0112 19.5538 40.6154 18.2853 40.6154C17.0168 40.6154 15.78 41.0112 14.7472 41.7477C13.7144 42.4842 12.9372 43.5246 12.524 44.7239C12.1107 45.9232 12.0821 47.2216 12.4419 48.4379C12.8018 49.6543 13.5323 50.728 14.5316 51.5094C12.6438 52.2608 11.0246 53.5606 9.88265 55.2411C8.74072 56.9216 8.12851 58.9057 8.125 60.9375C8.125 61.2068 8.232 61.4652 8.42247 61.6556C8.61294 61.8461 8.87126 61.9531 9.14062 61.9531H27.4219C27.6912 61.9531 27.9496 61.8461 28.14 61.6556C28.3305 61.4652 28.4375 61.2068 28.4375 60.9375C28.4346 58.9067 27.8236 56.9232 26.6832 55.2428C25.5428 53.5625 23.9253 52.2621 22.0391 51.5094ZM14.2188 46.7187C14.2188 45.9152 14.457 45.1298 14.9034 44.4617C15.3498 43.7936 15.9843 43.273 16.7266 42.9655C17.4689 42.658 18.2858 42.5775 19.0738 42.7343C19.8619 42.891 20.5857 43.278 21.1539 43.8461C21.722 44.4143 22.1089 45.1381 22.2657 45.9262C22.4224 46.7142 22.342 47.5311 22.0345 48.2734C21.727 49.0157 21.2063 49.6502 20.5383 50.0966C19.8702 50.543 19.0847 50.7812 18.2812 50.7812C17.2038 50.7812 16.1705 50.3532 15.4086 49.5914C14.6468 48.8295 14.2188 47.7962 14.2188 46.7187ZM14.3609 59.9219C14.5375 59.2205 14.8995 58.5796 15.4091 58.0663C15.5061 57.9726 15.5834 57.8606 15.6367 57.7366C15.6899 57.6127 15.7179 57.4795 15.7191 57.3446C15.7203 57.2098 15.6946 57.076 15.6435 56.9512C15.5924 56.8264 15.517 56.713 15.4217 56.6176C15.3263 56.5223 15.2129 56.4469 15.0881 56.3958C14.9633 56.3447 14.8295 56.319 14.6947 56.3202C14.5598 56.3214 14.4265 56.3494 14.3026 56.4026C14.1787 56.4558 14.0667 56.5332 13.973 56.6302C13.0768 57.5228 12.4832 58.6741 12.2759 59.9219H10.2192C10.4653 57.9572 11.4203 56.1499 12.9048 54.8397C14.3893 53.5295 16.3012 52.8064 18.2812 52.8064C20.2613 52.8064 22.1732 53.5295 23.6577 54.8397C25.1422 56.1499 26.0972 57.9572 26.3433 59.9219H14.3609Z" fill="#2386BC"/>
<path d="M50.4766 51.5094C51.4758 50.728 52.2063 49.6543 52.5662 48.4379C52.9261 47.2216 52.8974 45.9232 52.4841 44.7239C52.0709 43.5246 51.2937 42.4842 50.2609 41.7477C49.2282 41.0112 47.9913 40.6154 46.7228 40.6154C45.4543 40.6154 44.2175 41.0112 43.1847 41.7477C42.1519 42.4842 41.3747 43.5246 40.9615 44.7239C40.5482 45.9232 40.5196 47.2216 40.8794 48.4379C41.2393 49.6543 41.9698 50.728 42.9691 51.5094C41.0813 52.2608 39.4621 53.5606 38.3202 55.2411C37.1782 56.9216 36.566 58.9057 36.5625 60.9375C36.5625 61.2068 36.6695 61.4652 36.86 61.6556C37.0504 61.8461 37.3088 61.9531 37.5781 61.9531H55.8594C56.1287 61.9531 56.3871 61.8461 56.5775 61.6556C56.768 61.4652 56.875 61.2068 56.875 60.9375C56.8721 58.9067 56.2611 56.9232 55.1207 55.2428C53.9803 53.5625 52.3628 52.2621 50.4766 51.5094ZM42.6562 46.7187C42.6562 45.9152 42.8945 45.1298 43.3409 44.4617C43.7873 43.7936 44.4218 43.273 45.1641 42.9655C45.9064 42.658 46.7233 42.5775 47.5113 42.7343C48.2994 42.891 49.0232 43.278 49.5914 43.8461C50.1595 44.4143 50.5464 45.1381 50.7032 45.9262C50.8599 46.7142 50.7795 47.5311 50.472 48.2734C50.1645 49.0157 49.6438 49.6502 48.9758 50.0966C48.3077 50.543 47.5222 50.7812 46.7188 50.7812C45.6413 50.7812 44.608 50.3532 43.8461 49.5914C43.0843 48.8295 42.6562 47.7962 42.6562 46.7187ZM52.7231 59.9219C52.5158 58.6739 51.9219 57.5225 51.025 56.6302C50.9318 56.531 50.8197 56.4515 50.6952 56.3965C50.5707 56.3415 50.4365 56.3121 50.3004 56.31C50.1643 56.3078 50.0292 56.3331 49.9031 56.3842C49.777 56.4353 49.6624 56.5113 49.5662 56.6076C49.47 56.7038 49.3942 56.8184 49.3431 56.9446C49.2921 57.0708 49.2669 57.2059 49.2692 57.3419C49.2714 57.478 49.3009 57.6123 49.356 57.7367C49.4111 57.8611 49.4907 57.9732 49.5899 58.0663C50.0998 58.5793 50.4619 59.2203 50.638 59.9219H38.6537C38.8997 57.9572 39.8547 56.1499 41.3392 54.8397C42.8238 53.5295 44.7357 52.8064 46.7157 52.8064C48.6957 52.8064 50.6076 53.5295 52.0922 54.8397C53.5767 56.1499 54.5317 57.9572 54.7777 59.9219H52.7231Z" fill="#2386BC"/>
</svg>
