<svg width="26" height="25" viewBox="0 0 26 25" fill="none" xmlns="http://www.w3.org/2000/svg">
<path d="M12.5714 0C5.64143 0 0 4.60108 0 10.2557C0 15.3202 4.47333 19.5635 10.5129 20.3701C10.9225 20.4569 11.4798 20.6421 11.6212 20.9915C11.747 21.3085 11.704 21.7981 11.661 22.1287L11.4892 23.2021C11.4421 23.5191 11.2378 24.4502 12.5882 23.8811C13.9407 23.314 19.8335 19.5875 22.4735 16.5379C24.2796 14.5502 25.1429 12.5133 25.1429 10.2557C25.1429 4.60108 19.5014 0 12.5714 0ZM7.65076 13.6181H5.15114C4.78971 13.6181 4.49114 13.3178 4.49114 12.9558V7.93315C4.49114 7.57013 4.78971 7.26987 5.15114 7.26987C5.51571 7.26987 5.81114 7.57013 5.81114 7.93315V12.2926H7.65076C8.01533 12.2926 8.30971 12.5907 8.30971 12.9558C8.30971 13.3178 8.01429 13.6181 7.65076 13.6181ZM10.2342 12.9558C10.2342 13.3178 9.93876 13.6181 9.57314 13.6181C9.21171 13.6181 8.91628 13.3178 8.91628 12.9558V7.93315C8.91628 7.57013 9.21171 7.26987 9.57628 7.26987C9.93876 7.26987 10.2342 7.57013 10.2342 7.93315V12.9558ZM16.2486 12.9558C16.2486 13.2404 16.0663 13.4925 15.796 13.5835C15.729 13.6055 15.6567 13.616 15.5875 13.616C15.3665 13.616 15.1779 13.5208 15.0532 13.3523L12.4939 9.86021V12.9548C12.4939 13.3168 12.2016 13.617 11.8329 13.617C11.4704 13.617 11.177 13.3168 11.177 12.9548V7.93315C11.177 7.64859 11.3583 7.39646 11.6275 7.30649C11.6904 7.28243 11.77 7.27197 11.8308 7.27197C12.035 7.27197 12.2236 7.38181 12.3493 7.53979L14.9286 11.0455V7.93315C14.9286 7.57013 15.224 7.26987 15.5886 7.26987C15.95 7.26987 16.2486 7.57013 16.2486 7.93315V12.9558ZM20.2871 9.7807C20.6528 9.7807 20.9471 10.0809 20.9471 10.445C20.9471 10.808 20.6528 11.1083 20.2871 11.1083H18.4486V12.2926H20.2871C20.6528 12.2926 20.9471 12.5907 20.9471 12.9558C20.9471 13.3178 20.6528 13.6181 20.2871 13.6181H17.7875C17.4261 13.6181 17.1307 13.3178 17.1307 12.9558V7.93315C17.1307 7.57013 17.4261 7.26987 17.7907 7.26987H20.2903C20.6528 7.26987 20.9471 7.57013 20.9471 7.93315C20.9471 8.30036 20.6528 8.59642 20.2871 8.59642H18.4486V9.7807H20.2871Z" fill="white"/>
</svg>
