<svg width="28" height="28" viewBox="0 0 28 28" fill="none" xmlns="http://www.w3.org/2000/svg">
<path fill-rule="evenodd" clip-rule="evenodd" d="M20.8056 7.34779H25.6878C26.1396 7.34779 26.5081 7.71627 26.5081 8.1681V26.0959C26.5081 26.5477 26.1396 26.9162 25.6878 26.9162H20.8056C20.3537 26.9162 19.9853 26.5477 19.9853 26.0959V8.16805C19.9853 7.71627 20.3537 7.34779 20.8056 7.34779ZM9.80568 3.7371L8.83978 3.03617C8.75431 2.97416 8.71373 2.87594 8.73041 2.77159C8.74709 2.6673 8.81632 2.58669 8.91695 2.55448L13.4634 1.09761C13.5461 1.07109 13.6284 1.08295 13.7003 1.13168C13.7722 1.18041 13.8136 1.25243 13.8196 1.33911L14.1664 6.34679C14.1739 6.45523 14.1212 6.55214 14.0262 6.6048C13.9311 6.65752 13.821 6.6508 13.7331 6.58692L12.8584 5.95222C9.48953 10.5947 6.06926 11.6828 1.73555 11.2059C1.60446 11.1915 1.50439 11.089 1.49301 10.9577C1.48158 10.8261 1.5629 10.7078 1.68972 10.6714C6.51239 9.28192 9.04005 5.30264 9.80568 3.7371ZM3.00304 17.5688H7.88527C8.3371 17.5688 8.70558 17.9373 8.70558 18.3891V26.0959C8.70558 26.5477 8.3371 26.9162 7.88527 26.9162H3.00304C2.55121 26.9162 2.18273 26.5477 2.18273 26.0959V18.3891C2.18273 17.9373 2.55121 17.5688 3.00304 17.5688ZM16.7865 12.4583H11.9043C11.4524 12.4583 11.0839 12.8268 11.0839 13.2786V26.0959C11.0839 26.5477 11.4524 26.9162 11.9043 26.9162H16.7865C17.2383 26.9162 17.6068 26.5477 17.6068 26.0959V13.2786C17.6068 12.8268 17.2383 12.4583 16.7865 12.4583Z" fill="#2386BC"/>
</svg>
