<svg width="66" height="65" viewBox="0 0 66 65" fill="none" xmlns="http://www.w3.org/2000/svg">
<path d="M64.4844 31.4844V1.01562H21.8281V11.1719H16.2016C17.1705 10.0923 17.7656 8.67141 17.7656 7.10938C17.7656 3.74867 15.0326 1.01562 11.6719 1.01562C8.31117 1.01562 5.57812 3.74867 5.57812 7.10938C5.57812 8.93344 6.38758 10.5686 7.66117 11.6858C4.09023 12.9299 1.51562 16.3221 1.51562 20.3125V23.3594C1.51562 25.5998 3.33766 27.4219 5.57812 27.4219V38.0859C5.57812 38.6334 5.7132 39.1463 5.93461 39.6094H1.51562V47.7344H5.93359C5.70813 48.3712 5.57812 49.0527 5.57812 49.7656C5.57812 51.5897 6.38758 53.2248 7.66117 54.342C4.09023 55.5862 1.51562 58.9784 1.51562 62.9688V63.9844H19.7969H21.8281H38.0781H40.1094H58.3906V62.9688C58.3906 58.9784 55.816 55.5862 52.2451 54.342C53.5187 53.2248 54.3281 51.5897 54.3281 49.7656C54.3281 49.0527 54.1981 48.3712 53.9727 47.7344H64.4844V39.6094H57.9498L53.0748 31.4844H64.4844ZM23.8594 3.04688H62.4531V29.4531H23.8594V17.2656H26.9062C28.2286 17.2656 29.3458 16.4135 29.7663 15.2344H42.1406V5.07812H25.8906V11.1719H23.8594V3.04688ZM17.4091 39.6094C17.6305 39.1463 17.7656 38.6334 17.7656 38.0859V17.2656H21.8281V31.4844H33.2377L28.3627 39.6094H17.4091ZM35.6061 31.4844H38.3158L33.4408 39.6094H30.7311L35.6061 31.4844ZM40.1094 32.4431V39.6094H35.8092L40.1094 32.4431ZM42.1406 31.4844H44.1719V39.6094H42.1406V31.4844ZM46.2031 32.4431L50.5033 39.6094H46.2031V32.4431ZM29.7663 13.2031C29.4595 12.3429 28.7821 11.6655 27.9219 11.3588V7.10938H40.1094V13.2031H29.7663ZM11.6719 3.04688C13.9123 3.04688 15.7344 4.86891 15.7344 7.10938C15.7344 9.34984 13.9123 11.1719 11.6719 11.1719C9.43141 11.1719 7.60938 9.34984 7.60938 7.10938C7.60938 4.86891 9.43141 3.04688 11.6719 3.04688ZM7.60938 38.0859V20.3125H5.57812V25.3906C4.45789 25.3906 3.54688 24.4796 3.54688 23.3594V20.3125C3.54688 16.3922 6.73594 13.2031 10.6562 13.2031H26.9062C27.4659 13.2031 27.9219 13.6591 27.9219 14.2188C27.9219 14.7784 27.4659 15.2344 26.9062 15.2344H15.7344V38.0859C15.7344 38.9259 15.0509 39.6094 14.2109 39.6094C13.371 39.6094 12.6875 38.9259 12.6875 38.0859V24.375H10.6562V38.0859C10.6562 38.9259 9.97273 39.6094 9.13281 39.6094C8.29289 39.6094 7.60938 38.9259 7.60938 38.0859ZM11.6719 45.7031C13.9123 45.7031 15.7344 47.5252 15.7344 49.7656C15.7344 52.0061 13.9123 53.8281 11.6719 53.8281C9.43141 53.8281 7.60938 52.0061 7.60938 49.7656C7.60938 47.5252 9.43141 45.7031 11.6719 45.7031ZM3.61898 61.9531C4.11359 58.5122 7.08023 55.8594 10.6562 55.8594H12.6875C16.2635 55.8594 19.2302 58.5122 19.7248 61.9531H3.61898ZM15.6826 54.342C16.9562 53.2248 17.7656 51.5897 17.7656 49.7656C17.7656 49.0527 17.6356 48.3712 17.4102 47.7344H24.2148C23.9894 48.3712 23.8594 49.0527 23.8594 49.7656C23.8594 51.5897 24.6688 53.2248 25.9424 54.342C23.7152 55.118 21.8799 56.7267 20.8125 58.7996C19.7441 56.7267 17.9088 55.118 15.6826 54.342ZM34.0156 49.7656C34.0156 52.0061 32.1936 53.8281 29.9531 53.8281C27.7127 53.8281 25.8906 52.0061 25.8906 49.7656C25.8906 47.5252 27.7127 45.7031 29.9531 45.7031C32.1936 45.7031 34.0156 47.5252 34.0156 49.7656ZM21.9002 61.9531C22.3948 58.5122 25.3615 55.8594 28.9375 55.8594H30.9688C34.5448 55.8594 37.5114 58.5122 38.006 61.9531H21.9002ZM33.9638 54.342C35.2374 53.2248 36.0469 51.5897 36.0469 49.7656C36.0469 49.0527 35.9169 48.3712 35.6914 47.7344H42.4961C42.2706 48.3712 42.1406 49.0527 42.1406 49.7656C42.1406 51.5897 42.9501 53.2248 44.2237 54.342C41.9964 55.118 40.1612 56.7267 39.0938 58.7996C38.0253 56.7267 36.1901 55.118 33.9638 54.342ZM49.25 55.8594C52.826 55.8594 55.7927 58.5122 56.2873 61.9531H40.1815C40.6761 58.5122 43.6427 55.8594 47.2188 55.8594H49.25ZM48.2344 53.8281C45.9939 53.8281 44.1719 52.0061 44.1719 49.7656C44.1719 47.5252 45.9939 45.7031 48.2344 45.7031C50.4748 45.7031 52.2969 47.5252 52.2969 49.7656C52.2969 52.0061 50.4748 53.8281 48.2344 53.8281ZM62.4531 45.7031H52.7641C51.6479 44.46 50.0341 43.6719 48.2344 43.6719C46.4347 43.6719 44.8219 44.46 43.7047 45.7031H34.4828C33.3666 44.46 31.7528 43.6719 29.9531 43.6719C28.1534 43.6719 26.5406 44.46 25.4234 45.7031H16.2016C15.0854 44.46 13.4716 43.6719 11.6719 43.6719C9.87219 43.6719 8.25938 44.46 7.14219 45.7031H3.54688V41.6406H62.4531V45.7031ZM55.5814 39.6094H52.8717L47.9967 31.4844H50.7064L55.5814 39.6094Z" fill="#2386BC"/>
<path d="M42.1406 23.3594V25.3906H40.1094V17.2656H38.0781V25.3906H36.0469V27.4219H60.4219V13.2031H58.3906V25.3906H56.3594V15.2344H54.3281V25.3906H52.2969V21.3281H50.2656V25.3906H48.2344V19.2969H46.2031V25.3906H44.1719V23.3594H42.1406Z" fill="#2386BC"/>
<path d="M44.1719 5.07812H46.2031V7.10938H44.1719V5.07812Z" fill="#2386BC"/>
<path d="M48.2344 5.07812H60.4219V7.10938H48.2344V5.07812Z" fill="#2386BC"/>
<path d="M44.1719 9.14062H60.4219V11.1719H44.1719V9.14062Z" fill="#2386BC"/>
<path d="M25.8906 21.3281H27.9219V23.3594H25.8906V21.3281Z" fill="#2386BC"/>
<path d="M25.8906 25.3906H27.9219V27.4219H25.8906V25.3906Z" fill="#2386BC"/>
</svg>
