<svg width="28" height="28" viewBox="0 0 28 28" fill="none" xmlns="http://www.w3.org/2000/svg">
<g clip-path="url(#clip0_54_550)">
<path fill-rule="evenodd" clip-rule="evenodd" d="M11.2868 9.8035C11.905 9.18531 12.1722 8.28013 11.9581 7.40349L10.1713 9.19034C9.85097 9.51065 9.3316 9.51065 9.0113 9.19034L7.98159 8.16063C7.66128 7.84033 7.66128 7.32096 7.98159 7.00066C8.30189 6.68035 8.82126 6.68035 9.14156 7.00066L9.59126 7.45035L11.0435 5.99813C10.033 5.21659 8.59835 5.30961 7.69568 6.21234C6.70414 7.20388 6.70414 8.81196 7.69568 9.8035C8.68727 10.7951 10.2952 10.7951 11.2868 9.8035Z" fill="#2386BC"/>
<path fill-rule="evenodd" clip-rule="evenodd" d="M19.7279 0H4.21094C2.04121 0 0.273438 1.76777 0.273438 3.9375V27.1797C0.273438 27.6327 0.640773 28 1.09375 28H17.2314C17.6833 28 18.0517 27.6315 18.0517 27.1797C18.0514 19.4596 18.0469 11.7397 18.0469 4.01953C18.0469 2.49905 18.6673 1.0541 19.7279 0ZM3.55649 23.625C3.10466 23.625 2.73618 23.2565 2.73618 22.8047C2.73618 22.3529 3.10472 21.9844 3.55649 21.9844C4.00827 21.9844 4.3768 22.3529 4.3768 22.8047C4.37686 23.2565 4.00832 23.625 3.55649 23.625ZM3.55649 20.3438C3.10466 20.3438 2.73618 19.9752 2.73618 19.5234C2.73618 19.0717 3.10472 18.7031 3.55649 18.7031C4.00827 18.7031 4.3768 19.0716 4.3768 19.5234C4.3768 19.9753 4.00832 20.3438 3.55649 20.3438ZM3.55649 17.0625C3.10466 17.0625 2.73618 16.694 2.73618 16.2422C2.73618 15.7904 3.10472 15.4219 3.55649 15.4219C4.00827 15.4219 4.3768 15.7904 4.3768 16.2422C4.3768 16.694 4.00832 17.0625 3.55649 17.0625ZM6.5357 5.05241C8.07931 3.5088 10.5513 3.41212 12.2092 4.83252L13.2392 3.80259C13.5595 3.48228 14.0789 3.48228 14.3992 3.80259C14.7195 4.12289 14.7195 4.64226 14.3992 4.96256L13.2281 6.13359C14.0396 7.74812 13.7147 9.69566 12.4468 10.9636C10.8144 12.596 8.16813 12.596 6.5357 10.9636C4.90328 9.33116 4.90328 6.68484 6.5357 5.05241ZM14.7674 23.625H6.83774C6.38471 23.625 6.01743 23.2577 6.01743 22.8047C6.01743 22.3517 6.38471 21.9844 6.83774 21.9844H14.7674C15.2205 21.9844 15.5877 22.3517 15.5877 22.8047C15.5877 23.2577 15.2205 23.625 14.7674 23.625ZM14.7674 20.3438H6.83774C6.38471 20.3438 6.01743 19.9765 6.01743 19.5234C6.01743 19.0704 6.38471 18.7031 6.83774 18.7031H14.7674C15.2205 18.7031 15.5877 19.0704 15.5877 19.5234C15.5877 19.9765 15.2205 20.3438 14.7674 20.3438ZM14.7674 17.0625H6.83774C6.38471 17.0625 6.01743 16.6952 6.01743 16.2422C6.01743 15.7892 6.38471 15.4219 6.83774 15.4219H14.7674C15.2205 15.4219 15.5877 15.7892 15.5877 16.2422C15.5877 16.6952 15.2205 17.0625 14.7674 17.0625Z" fill="#2386BC"/>
<path fill-rule="evenodd" clip-rule="evenodd" d="M26.5464 1.1801C25.8183 0.451992 24.8133 0 23.707 0C22.6008 0 21.5957 0.451938 20.8676 1.1801C20.1394 1.90821 19.6875 2.91331 19.6875 4.01953V14.328C19.6875 14.781 20.0548 15.1483 20.5078 15.1483H26.9062C27.3593 15.1483 27.7266 14.781 27.7266 14.328V4.01953C27.7266 2.91337 27.2746 1.90827 26.5464 1.1801Z" fill="#2386BC"/>
</g>
<defs>
<clipPath id="clip0_54_550">
<rect width="28" height="28" fill="white"/>
</clipPath>
</defs>
</svg>
