<svg width="66" height="65" viewBox="0 0 66 65" fill="none" xmlns="http://www.w3.org/2000/svg">
<path fill-rule="evenodd" clip-rule="evenodd" d="M24.5384 18.9967C24.7384 19.3922 24.804 19.7648 24.7514 20.2049L24.4714 22.5484C24.2509 24.394 25.2506 26.1257 26.9593 26.8573L28.3521 27.4537L24.899 34.8708C24.6946 35.3098 24.7506 35.8211 25.0448 36.2052C25.3392 36.5893 25.8186 36.7763 26.2957 36.6929L29.831 36.0751L31.6342 39.1782C31.8674 39.5795 32.2922 39.8225 32.7529 39.8225C32.7727 39.8225 32.7925 39.822 32.8125 39.8211C33.2959 39.7991 33.7232 39.513 33.9277 39.074L37.2787 31.8765L38.2953 31.5693C38.7196 31.4411 39.0979 31.4411 39.5222 31.5693L40.539 31.8765L43.8899 39.0739C44.0942 39.5127 44.5214 39.799 45.0048 39.8211C45.0248 39.822 45.0447 39.8225 45.0646 39.8225C45.5252 39.8225 45.9498 39.5795 46.1833 39.1781L47.9864 36.0751L51.5218 36.6929C51.999 36.7761 52.4781 36.5894 52.7725 36.2052C53.0669 35.8212 53.1229 35.3098 52.9184 34.8707L49.4653 27.4537L50.858 26.8574C52.5666 26.1255 53.5665 24.394 53.3459 22.5484L53.0658 20.2049C53.0132 19.7648 53.079 19.3923 53.2788 18.9966L54.3435 16.8905C55.182 15.2316 54.8348 13.2624 53.4794 11.9903L51.7584 10.375C51.4355 10.0718 51.2462 9.74414 51.1451 9.31275L50.6068 7.01477C50.183 5.20493 48.6511 3.91966 46.7953 3.81657L44.4388 3.68543C43.9964 3.6608 43.6408 3.53131 43.286 3.26585L41.3967 1.85159C39.9084 0.737703 37.9089 0.737703 36.4209 1.85159L34.5315 3.26572C34.1766 3.53131 33.821 3.66067 33.3784 3.68543L31.0222 3.81657C29.1661 3.91978 27.6343 5.20506 27.2103 7.0149L26.672 9.31275C26.5709 9.74427 26.3817 10.0719 26.0584 10.3752L24.3377 11.9904C22.9824 13.2625 22.6351 15.2316 23.4737 16.8906L24.5384 18.9967ZM32.6814 36.9378L31.2315 34.4426C31.0179 34.075 30.598 33.8796 30.1786 33.9525L27.3358 34.4492L30.0698 28.5771L31.3602 30.5502C32.1387 31.7408 33.422 32.4197 34.779 32.4323L32.6814 36.9378ZM47.6383 33.9523C47.2194 33.8791 46.7991 34.0747 46.5854 34.4425L45.1354 36.9376L43.0373 32.4308C44.3944 32.4183 45.678 31.7407 46.4566 30.5502L47.7472 28.5769L50.4812 34.4491L47.6383 33.9523ZM25.7278 13.4715L27.4484 11.8564C28.0642 11.2787 28.457 10.5984 28.6497 9.776L29.188 7.47815C29.4078 6.53933 30.1721 5.89822 31.1348 5.84465L33.491 5.7135C34.3339 5.66666 35.0722 5.39803 35.7483 4.89199L37.6377 3.47773C38.4094 2.89997 39.4072 2.89997 40.1789 3.47773L42.0684 4.89212C42.7444 5.3979 43.4827 5.66666 44.3255 5.7135L46.6818 5.84465C47.6445 5.89822 48.4088 6.53946 48.6285 7.47802L49.1668 9.77613C49.3595 10.5983 49.7523 11.2787 50.3678 11.8563L52.0886 13.4715C52.7917 14.1313 52.9649 15.1137 52.5299 15.9741L51.4653 18.0804C51.0844 18.8339 50.948 19.6076 51.0481 20.446L51.3282 22.7895C51.4426 23.7468 50.9439 24.6107 50.0575 24.9903L47.888 25.9194C47.112 26.2517 46.5101 26.7569 46.048 27.4634L44.7562 29.4385C44.2285 30.2454 43.2909 30.5867 42.3681 30.3078L40.109 29.625C39.7049 29.5029 39.3064 29.4419 38.908 29.4419C38.5095 29.4419 38.111 29.5029 37.7069 29.625L35.4479 30.3078C34.5249 30.5868 33.5875 30.2455 33.0598 29.4385L31.7685 27.4634C31.3064 26.7569 30.7045 26.2517 29.9283 25.9194L27.7588 24.9903C26.8726 24.6107 26.3738 23.7468 26.4882 22.7895L26.7682 20.446C26.8685 19.6076 26.732 18.834 26.3512 18.0804L25.2864 15.9741C24.8516 15.1136 25.0248 14.1313 25.7278 13.4715ZM38.9085 26.7781C44.4522 26.7781 48.9622 22.2679 48.9622 16.7243C48.9622 11.1806 44.4522 6.6706 38.9085 6.6706C33.3648 6.6706 28.8547 11.1806 28.8547 16.7243C28.8547 22.2679 33.3648 26.7781 38.9085 26.7781ZM38.9085 8.70173C43.3321 8.70173 46.9309 12.3006 46.9309 16.7241C46.9309 21.1477 43.3321 24.7467 38.9085 24.7467C34.4848 24.7467 30.8859 21.1477 30.8859 16.7241C30.8859 12.3006 34.4848 8.70173 38.9085 8.70173ZM37.7244 21.7754C38.3277 21.7754 38.9311 21.5456 39.3904 21.0864C40.5178 19.959 41.6545 18.8059 42.7538 17.6909C43.4141 17.0213 44.0742 16.3514 44.7362 15.6835C45.6486 14.7627 45.6436 13.2704 44.7251 12.3568C44.2808 11.915 43.6916 11.6719 43.0651 11.6719C43.0619 11.6719 43.0589 11.6719 43.0557 11.6719C42.4266 11.6745 41.8365 11.9216 41.3944 12.3683L37.7178 16.0816L36.42 14.7837C35.5013 13.8654 34.0066 13.865 33.0877 14.7838C32.6429 15.2288 32.3977 15.8205 32.3977 16.4498C32.3977 17.0794 32.6427 17.671 33.0877 18.1159L36.0581 21.0863C36.5177 21.5457 37.121 21.7754 37.7244 21.7754ZM34.4291 16.4499C34.4291 16.3997 34.4414 16.3029 34.524 16.2201C34.5875 16.1568 34.6707 16.1251 34.754 16.1251C34.8372 16.1251 34.9204 16.1568 34.9837 16.22L37.0032 18.2396C37.1937 18.4301 37.4521 18.5372 37.7214 18.5372H37.7239C37.9942 18.5365 38.2529 18.4282 38.4432 18.2362L42.838 13.7975C42.9148 13.7199 43.0031 13.7034 43.0637 13.7032C43.1131 13.7022 43.2103 13.715 43.2928 13.797C43.4186 13.9222 43.4189 14.1271 43.2933 14.2538C42.6303 14.9231 41.9687 15.594 41.3073 16.265C40.2104 17.3776 39.0763 18.5279 37.9541 19.65C37.8274 19.7767 37.6212 19.7769 37.4945 19.65L34.524 16.6797C34.4414 16.5969 34.4291 16.5002 34.4291 16.4499ZM60.5908 41.4313C60.0423 40.5153 57.7948 37.7937 51.9041 41.2242L41.6674 47.1864C41.241 47.4347 40.8082 47.6215 40.3607 47.7477C40.508 47.4736 40.6267 47.173 40.7139 46.8477C41.2519 44.8394 40.0601 42.7433 38.0005 42.0755C37.957 42.0616 37.9126 42.0504 37.8676 42.0422C34.9345 41.5131 32.0355 40.465 29.706 39.6228C28.8946 39.3294 28.1281 39.0524 27.4755 38.8408C24.8129 37.9769 22.4182 39.0402 20.4265 40.1941L12.9058 44.5514L12.4086 43.6729C11.7235 42.4624 10.1813 42.0349 8.97041 42.72L6.09822 44.3455C4.88773 45.0306 4.46027 46.573 5.14531 47.7836L13.5893 62.7037C13.9204 63.2885 14.461 63.7101 15.1116 63.8904C15.3366 63.9527 15.565 63.9836 15.792 63.9836C16.2212 63.9836 16.6449 63.8731 17.0275 63.6566L19.8997 62.0309C20.4847 61.7 20.9062 61.1594 21.0866 60.5089C21.267 59.8584 21.1838 59.178 20.8527 58.5929L19.8657 56.849L21.4711 55.9221L34.5392 59.4237C35.2719 59.6201 36.001 59.7176 36.7182 59.7176C38.1687 59.7176 39.5699 59.3182 40.851 58.5297L59.4281 47.0907C61.1687 46.0191 61.723 43.3216 60.5908 41.4313ZM19.1291 59.9664C19.1085 60.0403 19.0515 60.1772 18.8992 60.2634L16.027 61.889C15.8748 61.9751 15.728 61.9536 15.654 61.9332C15.58 61.9126 15.4431 61.8556 15.357 61.7033L6.91314 46.7831C6.78187 46.5513 6.86705 46.2444 7.09887 46.1132L9.97093 44.4878C10.0556 44.4398 10.1386 44.4252 10.2083 44.4252C10.2639 44.4252 10.3112 44.4345 10.3439 44.4436C10.4179 44.4642 10.5548 44.5212 10.6409 44.6735L19.0849 59.5936C19.171 59.7458 19.1495 59.8924 19.1291 59.9664ZM58.3629 45.3611L39.786 56.8001C38.3389 57.6909 36.7505 57.9136 35.0649 57.4618L21.5903 53.8513C21.3302 53.7815 21.0529 53.8179 20.8197 53.9529L18.8651 55.0814L13.9062 46.3193L21.4446 41.9518C23.1295 40.9756 24.9504 40.157 26.8486 40.7731C27.4693 40.9744 28.1857 41.2333 29.0153 41.5332C31.3973 42.3943 34.3574 43.4645 37.4327 44.0277C38.4438 44.385 39.0092 45.3608 38.7517 46.322C38.4178 47.5683 37.3518 47.7215 36.5006 47.6254C34.913 47.3054 33.4692 46.896 31.959 46.4676C31.2787 46.2746 30.5754 46.0752 29.8353 45.8769C29.2938 45.732 28.7366 46.0534 28.5914 46.5951C28.4462 47.1369 28.7677 47.6937 29.3096 47.839C30.0354 48.0333 30.7314 48.2309 31.4046 48.4218C32.9661 48.8646 34.4587 49.288 36.1273 49.6225C36.1338 49.6239 36.1403 49.6252 36.1468 49.6265C36.57 49.711 37.0046 49.7899 37.4548 49.8618C39.3843 50.1707 41.0967 49.8695 42.6897 48.9417L52.9264 42.9795C55.8157 41.2967 58.0295 41.1082 58.8483 42.4749C59.409 43.4113 59.1641 44.8679 58.3629 45.3611ZM10.5827 46.9778C10.6646 47.5382 10.2768 48.059 9.71639 48.1409C9.15602 48.2229 8.63526 47.8349 8.55337 47.2745C8.47136 46.7142 8.85933 46.1934 9.4197 46.1115C9.98007 46.0295 10.5008 46.4173 10.5827 46.9778Z" fill="#2386BC"/>
</svg>
