<svg width="40" height="40" viewBox="0 0 40 40" fill="none" xmlns="http://www.w3.org/2000/svg">
<path d="M22.7776 36.9481V30.2733C22.7776 29.3681 23.5114 28.6346 24.4167 28.6346C27.6464 28.6346 29.4033 25.322 29.6468 18.784L24.4167 18.784C23.5114 18.784 22.7776 18.0498 22.7776 17.1449V3.05158C22.7776 2.1468 23.5114 1.41321 24.4167 1.41321H38.3613C39.2669 1.41321 40 2.14737 40 3.05158L40 17.1449C40 20.2791 39.6844 23.1553 39.0623 25.6944C38.4243 28.298 37.4449 30.5744 36.1523 32.4606C34.8221 34.3991 33.1583 35.9202 31.2067 36.9799C29.2418 38.0461 26.957 38.5868 24.4161 38.5868C23.5114 38.5868 22.7776 37.8533 22.7776 36.9481ZM1.63918 28.6345C0.734392 28.6345 6.90433e-07 29.3687 6.90433e-07 30.2732V36.948C6.90433e-07 37.8532 0.734277 38.5867 1.63918 38.5867C4.17901 38.5867 6.46423 38.0458 8.42838 36.9798C10.3804 35.9201 12.0451 34.399 13.3755 32.4605C14.6677 30.5743 15.647 28.2977 16.2852 25.6936C16.9069 23.1537 17.2225 20.2775 17.2225 17.1448V3.05147C17.2225 2.14668 16.4885 1.41309 15.5835 1.41309L1.63929 1.41309C0.734507 1.41309 0.000801489 2.14726 0.000801489 3.05147L0.000801489 17.1449C0.000801489 18.0497 0.734392 18.784 1.63929 18.784H6.79481C6.55498 25.3219 4.82379 28.6345 1.63918 28.6345Z" fill="#DCEAEA"/>
</svg>
