<svg width="1440" height="958" viewBox="0 0 1440 958" fill="none" xmlns="http://www.w3.org/2000/svg">
<rect width="1440" height="958" fill="#F9F9F9"/>
<path fill-rule="evenodd" clip-rule="evenodd" d="M1290.06 317C1290.02 317.995 1290 318.995 1290 320V317H1290.06ZM1367 397H1290V320C1290 362.526 1324.47 397 1367 397ZM1370 396.943V397H1367C1368 397 1369 396.981 1370 396.943Z" fill="#1278AF"/>
<path fill-rule="evenodd" clip-rule="evenodd" d="M403.943 477C403.981 476.005 404 475.005 404 474V477H403.943ZM327 397H404V474C404 431.474 369.526 397 327 397ZM324 397.057V397H327C325.995 397 324.995 397.019 324 397.057Z" fill="#1278AF"/>
<path d="M0 0H1230C1263.14 0 1290 26.8629 1290 60V397H0V0Z" fill="#1278AF"/>
<path d="M1440 397H404V734C404 767.137 430.863 794 464 794H1440V397Z" fill="#1278AF"/>
<rect x="1370" y="794" width="70" height="164" fill="#1278AF"/>
<path fill-rule="evenodd" clip-rule="evenodd" d="M1369.94 874C1369.98 873.005 1370 872.005 1370 871V874H1369.94ZM1293 794H1370V871C1370 828.474 1335.53 794 1293 794ZM1290 794.057V794H1293C1292 794 1291 794.019 1290 794.057Z" fill="#1278AF"/>
</svg>
