<svg width="28" height="28" viewBox="0 0 28 28" fill="none" xmlns="http://www.w3.org/2000/svg">
<g clip-path="url(#clip0_62_655)">
<path d="M26.5517 12.5515C26.2521 12.5515 25.9599 12.6443 25.7153 12.8173C25.4707 12.9902 25.2857 13.2346 25.1858 13.517H22.6763C22.568 11.5484 21.7909 9.67571 20.4735 8.20885L22.2509 6.43143C22.5592 6.57867 22.9096 6.61217 23.2402 6.52603C23.5708 6.43989 23.8603 6.23964 24.0576 5.96069C24.2548 5.68173 24.3471 5.34202 24.3181 5.00161C24.2891 4.66119 24.1407 4.34199 23.8991 4.10041C23.6575 3.85883 23.3383 3.71044 22.9979 3.68145C22.6575 3.65247 22.3178 3.74476 22.0388 3.94202C21.7599 4.13927 21.5596 4.42879 21.4735 4.7594C21.3874 5.09002 21.4209 5.44043 21.5681 5.74872L19.7907 7.52615C18.3239 6.20873 16.4512 5.43158 14.4825 5.32329V2.81376C14.8047 2.69988 15.0761 2.47579 15.249 2.18111C15.4219 1.88642 15.485 1.54011 15.4272 1.20339C15.3694 0.86666 15.1945 0.561197 14.9333 0.340988C14.6721 0.120778 14.3414 0 13.9998 0C13.6581 0 13.3275 0.120778 13.0663 0.340988C12.8051 0.561197 12.6301 0.86666 12.5723 1.20339C12.5146 1.54011 12.5777 1.88642 12.7506 2.18111C12.9234 2.47579 13.1949 2.69988 13.517 2.81376V5.32329C11.5484 5.43157 9.67571 6.20871 8.20884 7.52612L6.43143 5.74872C6.57867 5.44043 6.61219 5.09001 6.52605 4.7594C6.43991 4.42879 6.23967 4.13927 5.96072 3.94202C5.68177 3.74477 5.34206 3.65248 5.00165 3.68147C4.66123 3.71046 4.34202 3.85886 4.10044 4.10044C3.85886 4.34202 3.71046 4.66123 3.68147 5.00165C3.65248 5.34207 3.74476 5.68177 3.94202 5.96072C4.13927 6.23968 4.42879 6.43992 4.7594 6.52605C5.09001 6.61219 5.44043 6.57867 5.74872 6.43143L7.52614 8.20885C6.20873 9.67571 5.43158 11.5484 5.32328 13.517H2.81377C2.69988 13.1949 2.4758 12.9234 2.18111 12.7506C1.88643 12.5777 1.54012 12.5146 1.20339 12.5724C0.866663 12.6301 0.5612 12.8051 0.340991 13.0663C0.120781 13.3275 2.86102e-06 13.6581 2.86102e-06 13.9998C2.86102e-06 14.3414 0.120781 14.6721 0.340991 14.9333C0.5612 15.1945 0.866663 15.3695 1.20339 15.4272C1.54012 15.485 1.88643 15.4219 2.18111 15.249C2.4758 15.0761 2.69988 14.8047 2.81377 14.4826H5.32328C5.43157 16.4512 6.20871 18.3239 7.52612 19.7907L5.74872 21.5681C5.44043 21.4209 5.09001 21.3874 4.7594 21.4735C4.42879 21.5597 4.13927 21.7599 3.94202 22.0389C3.74477 22.3178 3.65248 22.6575 3.68147 22.9979C3.71046 23.3383 3.85886 23.6575 4.10044 23.8991C4.34203 24.1407 4.66123 24.2891 5.00165 24.3181C5.34206 24.3471 5.68177 24.2548 5.96072 24.0576C6.23968 23.8603 6.43992 23.5708 6.52605 23.2402C6.61219 22.9096 6.57868 22.5591 6.43144 22.2509L8.20884 20.4734C9.67571 21.7909 11.5484 22.568 13.517 22.6763V25.1858C13.1949 25.2997 12.9234 25.5238 12.7506 25.8185C12.5777 26.1132 12.5146 26.4595 12.5723 26.7962C12.6301 27.1329 12.8051 27.4384 13.0663 27.6586C13.3275 27.8788 13.6581 27.9996 13.9998 27.9996C14.3414 27.9996 14.6721 27.8788 14.9333 27.6586C15.1945 27.4384 15.3694 27.1329 15.4272 26.7962C15.485 26.4595 15.4219 26.1132 15.249 25.8185C15.0761 25.5238 14.8047 25.2997 14.4825 25.1858V22.6763C16.4512 22.568 18.3239 21.7909 19.7907 20.4735L21.5681 22.2509C21.4209 22.5591 21.3874 22.9096 21.4735 23.2402C21.5597 23.5708 21.7599 23.8603 22.0388 24.0576C22.3178 24.2548 22.6575 24.3471 22.9979 24.3181C23.3383 24.2891 23.6575 24.1407 23.8991 23.8991C24.1407 23.6575 24.2891 23.3383 24.3181 22.9979C24.3471 22.6575 24.2548 22.3178 24.0576 22.0389C23.8603 21.7599 23.5708 21.5597 23.2402 21.4735C22.9096 21.3874 22.5591 21.4209 22.2508 21.5681L20.4734 19.7907C21.7908 18.3239 22.568 16.4512 22.6763 14.4826H25.1858C25.2743 14.7329 25.4299 14.9542 25.6356 15.1221C25.8413 15.29 26.0893 15.3981 26.3523 15.4347C26.6153 15.4712 26.8833 15.4347 27.127 15.3292C27.3707 15.2237 27.5807 15.0532 27.7341 14.8364C27.8874 14.6196 27.9782 14.3648 27.9965 14.0999C28.0149 13.835 27.96 13.5701 27.838 13.3343C27.7159 13.0984 27.5314 12.9007 27.3045 12.7626C27.0777 12.6246 26.8172 12.5515 26.5517 12.5515ZM20.7585 15.4481C20.7585 15.5761 20.7076 15.6989 20.6171 15.7895C20.5266 15.88 20.4038 15.9309 20.2757 15.9309H18.948C18.9214 15.9989 18.8934 16.0663 18.8641 16.1332L19.803 17.0721C19.8479 17.1169 19.8834 17.1701 19.9077 17.2287C19.9319 17.2873 19.9444 17.35 19.9444 17.4134C19.9444 17.4768 19.9319 17.5396 19.9077 17.5982C19.8834 17.6568 19.8479 17.71 19.803 17.7548L17.7548 19.803C17.71 19.8479 17.6568 19.8834 17.5982 19.9077C17.5397 19.9319 17.4769 19.9444 17.4135 19.9444C17.3501 19.9444 17.2873 19.9319 17.2287 19.9077C17.1702 19.8834 17.1169 19.8479 17.0721 19.803L16.1331 18.8641C16.0663 18.8935 15.9988 18.9214 15.9308 18.948V20.2757C15.9308 20.4038 15.88 20.5266 15.7894 20.6171C15.6989 20.7076 15.5761 20.7585 15.4481 20.7585H12.5515C12.4235 20.7585 12.3007 20.7076 12.2101 20.6171C12.1196 20.5266 12.0687 20.4038 12.0687 20.2757V18.948C12.0007 18.9214 11.9333 18.8934 11.8664 18.8641L10.9275 19.803C10.8827 19.8479 10.8294 19.8834 10.7709 19.9077C10.7123 19.932 10.6495 19.9444 10.5861 19.9444C10.5227 19.9444 10.46 19.932 10.4014 19.9077C10.3428 19.8834 10.2896 19.8479 10.2448 19.803L8.19655 17.7548C8.15172 17.71 8.11616 17.6568 8.0919 17.5982C8.06763 17.5396 8.05514 17.4769 8.05514 17.4135C8.05514 17.3501 8.06763 17.2873 8.0919 17.2287C8.11616 17.1701 8.15172 17.1169 8.19655 17.0721L9.13548 16.1332C9.10616 16.0663 9.0782 15.9989 9.0516 15.9309H7.72383C7.5958 15.9309 7.473 15.88 7.38247 15.7895C7.29193 15.6989 7.24107 15.5761 7.24107 15.4481V12.5515C7.24107 12.4235 7.29193 12.3007 7.38247 12.2101C7.473 12.1196 7.5958 12.0687 7.72383 12.0687H9.05161C9.07817 12.0007 9.10613 11.9333 9.13549 11.8664L8.19657 10.9275C8.15174 10.8827 8.11618 10.8294 8.09191 10.7709C8.06765 10.7123 8.05516 10.6495 8.05516 10.5861C8.05516 10.5227 8.06765 10.46 8.09191 10.4014C8.11618 10.3428 8.15174 10.2896 8.19657 10.2448L10.2448 8.19656C10.2896 8.15172 10.3428 8.11616 10.4014 8.0919C10.46 8.06764 10.5227 8.05515 10.5861 8.05515C10.6495 8.05515 10.7123 8.06764 10.7709 8.0919C10.8295 8.11616 10.8827 8.15172 10.9275 8.19656L11.8664 9.13548C11.9333 9.10611 12.0007 9.07815 12.0687 9.0516V7.72384C12.0687 7.5958 12.1196 7.47301 12.2101 7.38247C12.3007 7.29193 12.4235 7.24107 12.5515 7.24107H15.4481C15.5761 7.24107 15.6989 7.29193 15.7895 7.38247C15.88 7.47301 15.9309 7.5958 15.9309 7.72384V9.05159C15.9989 9.07817 16.0663 9.10613 16.1332 9.13547L17.0722 8.19654C17.117 8.15171 17.1702 8.11615 17.2288 8.09189C17.2873 8.06762 17.3501 8.05514 17.4135 8.05514C17.4769 8.05514 17.5397 8.06762 17.5983 8.09189C17.6568 8.11615 17.71 8.15171 17.7549 8.19654L19.8031 10.2448C19.8479 10.2896 19.8835 10.3428 19.9077 10.4014C19.932 10.4599 19.9445 10.5227 19.9445 10.5861C19.9445 10.6495 19.932 10.7123 19.9077 10.7709C19.8835 10.8294 19.8479 10.8827 19.8031 10.9275L18.8641 11.8664C18.8935 11.9333 18.9215 12.0007 18.948 12.0687H20.2757C20.4038 12.0687 20.5266 12.1196 20.6171 12.2101C20.7076 12.3006 20.7585 12.4234 20.7585 12.5515V15.4481Z" fill="#2386BC"/>
<path d="M13.9998 11.5859C13.5224 11.5859 13.0557 11.7275 12.6587 11.9927C12.2618 12.258 11.9524 12.635 11.7697 13.076C11.587 13.5171 11.5392 14.0024 11.6323 14.4707C11.7255 14.9389 11.9554 15.369 12.293 15.7066C12.6305 16.0442 13.0606 16.2741 13.5289 16.3672C13.9971 16.4603 14.4825 16.4125 14.9235 16.2298C15.3646 16.0472 15.7416 15.7378 16.0068 15.3408C16.272 14.9439 16.4136 14.4772 16.4136 13.9998C16.4129 13.3598 16.1584 12.7463 15.7058 12.2937C15.2533 11.8412 14.6398 11.5867 13.9998 11.5859ZM13.8584 15.3067C13.8136 15.3515 13.7603 15.387 13.7018 15.4113C13.6432 15.4356 13.5804 15.4481 13.517 15.4481C13.4536 15.4481 13.3909 15.4356 13.3323 15.4113C13.2737 15.387 13.2205 15.3515 13.1757 15.3067L12.2101 14.3411L12.8928 13.6584L13.517 14.2826L15.1067 12.6929L15.7894 13.3756L13.8584 15.3067Z" fill="#2386BC"/>
<path d="M18.1458 12.6961C18.0693 12.4527 17.9713 12.2165 17.8532 11.9903C17.8055 11.8992 17.7882 11.7952 17.8038 11.6936C17.8194 11.592 17.8669 11.498 17.9396 11.4253L18.7789 10.5861L17.4134 9.2206L16.5742 10.0598C16.5015 10.1325 16.4075 10.1801 16.3058 10.1957C16.2042 10.2112 16.1003 10.1939 16.0092 10.1463C15.783 10.0281 15.5468 9.9302 15.3034 9.85365C15.2054 9.82285 15.1197 9.76159 15.0589 9.67875C14.9981 9.59592 14.9653 9.49585 14.9653 9.3931V8.20654H13.0343V9.3931C13.0343 9.49586 13.0015 9.59594 12.9406 9.67877C12.8798 9.76161 12.7942 9.82288 12.6961 9.85367C12.4527 9.93024 12.2165 10.0282 11.9903 10.1463C11.8992 10.194 11.7953 10.2113 11.6937 10.1957C11.5921 10.1801 11.4981 10.1326 11.4254 10.0599L10.5861 9.22063L9.22066 10.5861L10.0599 11.4253C10.1326 11.498 10.1802 11.592 10.1958 11.6937C10.2113 11.7953 10.194 11.8992 10.1464 11.9903C10.0282 12.2165 9.93029 12.4527 9.85376 12.6961C9.82297 12.7941 9.76169 12.8798 9.67886 12.9406C9.59602 13.0014 9.49594 13.0342 9.39319 13.0342H8.2066V14.9653H9.39319C9.49595 14.9653 9.59603 14.9981 9.67886 15.0589C9.7617 15.1197 9.82297 15.2053 9.85376 15.3034C9.93029 15.5468 10.0282 15.783 10.1464 16.0092C10.194 16.1003 10.2113 16.2042 10.1958 16.3058C10.1802 16.4075 10.1326 16.5015 10.0599 16.5741L9.22066 17.4134L10.5861 18.7789L11.4254 17.9396C11.4981 17.8669 11.5921 17.8193 11.6937 17.8038C11.7953 17.7882 11.8992 17.8055 11.9903 17.8531C12.2165 17.9713 12.4527 18.0692 12.6961 18.1458C12.7942 18.1766 12.8798 18.2379 12.9406 18.3207C13.0015 18.4035 13.0342 18.5036 13.0343 18.6064V19.7929H14.9653V18.6064C14.9653 18.5036 14.9981 18.4035 15.0589 18.3207C15.1197 18.2378 15.2054 18.1766 15.3034 18.1458C15.5469 18.0692 15.783 17.9713 16.0092 17.8531C16.1003 17.8055 16.2042 17.7882 16.3059 17.8037C16.4075 17.8193 16.5015 17.8669 16.5742 17.9396L17.4135 18.7788L18.7789 17.4134L17.9397 16.5741C17.867 16.5014 17.8194 16.4074 17.8038 16.3058C17.7883 16.2042 17.8056 16.1002 17.8532 16.0091C17.9714 15.783 18.0693 15.5468 18.1459 15.3034C18.1767 15.2053 18.2379 15.1197 18.3208 15.0589C18.4036 14.9981 18.5037 14.9653 18.6064 14.9653H19.793V13.0342H18.6064C18.5037 13.0342 18.4036 13.0014 18.3207 12.9406C18.2379 12.8798 18.1766 12.7941 18.1458 12.6961ZM13.9998 17.3791C13.3314 17.3791 12.678 17.1809 12.1223 16.8096C11.5666 16.4382 11.1334 15.9104 10.8777 15.293C10.6219 14.6755 10.555 13.996 10.6854 13.3404C10.8158 12.6849 11.1376 12.0828 11.6102 11.6102C12.0828 11.1375 12.685 10.8157 13.3405 10.6853C13.996 10.5549 14.6755 10.6218 15.293 10.8776C15.9105 11.1334 16.4383 11.5665 16.8096 12.1223C17.1809 12.678 17.3791 13.3314 17.3791 13.9997C17.3781 14.8957 17.0218 15.7546 16.3882 16.3882C15.7547 17.0217 14.8957 17.3781 13.9998 17.3791Z" fill="#2386BC"/>
</g>
<defs>
<clipPath id="clip0_62_655">
<rect width="28" height="28" fill="white"/>
</clipPath>
</defs>
</svg>
