<svg width="28" height="28" viewBox="0 0 28 28" fill="none" xmlns="http://www.w3.org/2000/svg">
<g clip-path="url(#clip0_17_70)">
<path d="M25.9219 0.109375H2.07812C1.67201 0.109375 1.28253 0.270703 0.995368 0.557868C0.708203 0.845033 0.546875 1.23451 0.546875 1.64062C0.546875 2.04674 0.708203 2.43622 0.995368 2.72338C1.28253 3.01055 1.67201 3.17187 2.07812 3.17188H25.9219C26.328 3.17187 26.7175 3.01055 27.0046 2.72338C27.2918 2.43622 27.4531 2.04674 27.4531 1.64062C27.4531 1.23451 27.2918 0.845033 27.0046 0.557868C26.7175 0.270703 26.328 0.109375 25.9219 0.109375Z" fill="#2386BC"/>
<path d="M25.8125 20.2344H25.2656V4.70312H2.73438V20.2344H2.1875C1.98444 20.2344 1.7897 20.315 1.64612 20.4586C1.50254 20.6022 1.42188 20.7969 1.42188 21C1.42188 21.2031 1.50254 21.3978 1.64612 21.5414C1.7897 21.685 1.98444 21.7656 2.1875 21.7656H13.2344V23.4382C12.7235 23.6188 12.293 23.9742 12.0188 24.4415C11.7447 24.9089 11.6446 25.4581 11.7362 25.9921C11.8278 26.5261 12.1053 27.0106 12.5195 27.3598C12.9338 27.709 13.4582 27.9006 14 27.9006C14.5418 27.9006 15.0662 27.709 15.4805 27.3598C15.8947 27.0106 16.1722 26.5261 16.2638 25.9921C16.3554 25.4581 16.2553 24.9089 15.9812 24.4415C15.707 23.9742 15.2765 23.6188 14.7656 23.4382V21.7656H25.8125C26.0156 21.7656 26.2103 21.685 26.3539 21.5414C26.4975 21.3978 26.5781 21.2031 26.5781 21C26.5781 20.7969 26.4975 20.6022 26.3539 20.4586C26.2103 20.315 26.0156 20.2344 25.8125 20.2344ZM14 26.3594C13.8486 26.3594 13.7005 26.3145 13.5746 26.2303C13.4487 26.1462 13.3506 26.0266 13.2927 25.8867C13.2347 25.7468 13.2195 25.5929 13.2491 25.4444C13.2786 25.2959 13.3515 25.1594 13.4586 25.0524C13.5657 24.9453 13.7021 24.8724 13.8506 24.8428C13.9992 24.8133 14.1531 24.8285 14.293 24.8864C14.4329 24.9444 14.5525 25.0425 14.6366 25.1684C14.7207 25.2943 14.7656 25.4423 14.7656 25.5937C14.7654 25.7967 14.6847 25.9913 14.5411 26.1349C14.3976 26.2784 14.203 26.3591 14 26.3594ZM6.5625 6.23437H14.4375C14.6406 6.23437 14.8353 6.31504 14.9789 6.45862C15.1225 6.6022 15.2031 6.79694 15.2031 7C15.2031 7.20306 15.1225 7.3978 14.9789 7.54138C14.8353 7.68496 14.6406 7.76562 14.4375 7.76562H6.5625C6.35944 7.76562 6.1647 7.68496 6.02112 7.54138C5.87754 7.3978 5.79687 7.20306 5.79688 7C5.79687 6.79694 5.87754 6.6022 6.02112 6.45862C6.1647 6.31504 6.35944 6.23437 6.5625 6.23437ZM6.5625 9.29687H14.4375C14.6406 9.29687 14.8353 9.37754 14.9789 9.52112C15.1225 9.6647 15.2031 9.85944 15.2031 10.0625C15.2031 10.2656 15.1225 10.4603 14.9789 10.6039C14.8353 10.7475 14.6406 10.8281 14.4375 10.8281H6.5625C6.35944 10.8281 6.1647 10.7475 6.02112 10.6039C5.87754 10.4603 5.79687 10.2656 5.79688 10.0625C5.79687 9.85944 5.87754 9.6647 6.02112 9.52112C6.1647 9.37754 6.35944 9.29687 6.5625 9.29687ZM5.79688 13.125C5.79699 12.922 5.87769 12.7273 6.02125 12.5837C6.16481 12.4402 6.35948 12.3595 6.5625 12.3594H10.9375C11.1406 12.3594 11.3353 12.44 11.4789 12.5836C11.6225 12.7272 11.7031 12.9219 11.7031 13.125C11.7031 13.3281 11.6225 13.5228 11.4789 13.6664C11.3353 13.81 11.1406 13.8906 10.9375 13.8906H6.5625C6.35948 13.8905 6.16481 13.8098 6.02125 13.6663C5.87769 13.5227 5.79699 13.328 5.79688 13.125ZM22.2031 15.3125C22.2031 15.5156 22.1225 15.7103 21.9789 15.8539C21.8353 15.9975 21.6406 16.0781 21.4375 16.0781C21.2344 16.0781 21.0397 15.9975 20.8961 15.8539C20.7525 15.7103 20.6719 15.5156 20.6719 15.3125V14.5359L16.7287 18.4787C16.6535 18.554 16.5635 18.6128 16.4643 18.6513C16.3652 18.6898 16.2591 18.7072 16.1528 18.7024C16.0465 18.6976 15.9424 18.6706 15.8472 18.6233C15.7519 18.576 15.6675 18.5093 15.5995 18.4275L13.909 16.3988L11.4358 18.5189C11.2816 18.6511 11.0812 18.7166 10.8787 18.701C10.6762 18.6854 10.4882 18.59 10.3561 18.4358C10.2239 18.2816 10.1584 18.0812 10.174 17.8787C10.1896 17.6762 10.285 17.4882 10.4392 17.3561L13.5017 14.7311C13.5787 14.6651 13.6681 14.6151 13.7646 14.5839C13.8611 14.5528 13.9629 14.5411 14.064 14.5496C14.165 14.5581 14.2634 14.5866 14.3534 14.6335C14.4433 14.6803 14.5231 14.7446 14.588 14.8225L16.2391 16.8035L19.5891 13.4531H18.8125C18.6094 13.4531 18.4147 13.3725 18.2711 13.2289C18.1275 13.0853 18.0469 12.8906 18.0469 12.6875C18.0469 12.4844 18.1275 12.2897 18.2711 12.1461C18.4147 12.0025 18.6094 11.9219 18.8125 11.9219H21.4375C21.6405 11.922 21.8352 12.0027 21.9788 12.1462C22.1223 12.2898 22.203 12.4845 22.2031 12.6875V15.3125Z" fill="#2386BC"/>
</g>
<defs>
<clipPath id="clip0_17_70">
<rect width="28" height="28" fill="white"/>
</clipPath>
</defs>
</svg>
