<svg width="28" height="28" viewBox="0 0 28 28" fill="none" xmlns="http://www.w3.org/2000/svg">
<g clip-path="url(#clip0_17_109)">
<path fill-rule="evenodd" clip-rule="evenodd" d="M16.8252 25.4422C16.8252 24.4744 16.0406 23.6899 15.0729 23.6899H12.9271C12.4624 23.6899 12.0167 23.8745 11.6881 24.2031C11.3595 24.5318 11.1748 24.9775 11.1748 25.4422C11.1748 26.4099 11.9594 27.1945 12.9271 27.1945H15.0729C16.0406 27.1945 16.8252 26.4099 16.8252 25.4422ZM3.6838 20.9238C3.97649 20.9461 4.33059 20.959 4.68628 20.9381C4.87577 21.8991 5.34652 22.7904 6.0492 23.4931C6.98206 24.4259 8.24726 24.95 9.56648 24.95H10.2351C10.2056 25.1113 10.1905 25.276 10.1905 25.4422C10.1905 25.6103 10.2056 25.7748 10.2347 25.9344H9.56648C7.98618 25.9344 6.47057 25.3066 5.35314 24.1892C4.46168 23.2977 3.88183 22.1528 3.6838 20.9238ZM3.18309 19.8763C2.40592 19.7453 1.68273 19.3758 1.1182 18.8112C0.402227 18.0953 0 17.1242 0 16.1116V13.7851C0 12.7725 0.402227 11.8014 1.1182 11.0855C1.83416 10.3695 2.80525 9.96722 3.81779 9.96722H4.07192C4.47814 4.83994 8.76794 0.805481 14 0.805481C19.2321 0.805481 23.5219 4.83994 23.9281 9.96722H24.1822C25.1947 9.96722 26.1658 10.3695 26.8818 11.0855C27.5978 11.8014 28 12.7725 28 13.7851V16.1116C28 17.1242 27.5978 18.0953 26.8818 18.8112C26.1658 19.5273 25.1947 19.9295 24.1822 19.9295H23.0556C22.5883 19.9295 22.2096 19.5507 22.2096 19.0835V10.7651C22.2096 6.23103 18.534 2.55548 14 2.55548C9.46597 2.55548 5.79042 6.23103 5.79042 10.7651V19.0835C5.79042 19.4133 5.60159 19.6992 5.32607 19.8387C4.56766 20.1019 3.3915 19.9115 3.18309 19.8763Z" fill="#2386BC"/>
</g>
<defs>
<clipPath id="clip0_17_109">
<rect width="28" height="28" fill="white"/>
</clipPath>
</defs>
</svg>
