<svg width="66" height="65" viewBox="0 0 66 65" fill="none" xmlns="http://www.w3.org/2000/svg">
<path d="M33 24.1042C28.3705 24.1042 24.6042 27.8705 24.6042 32.5C24.6042 37.1295 28.3705 40.8958 33 40.8958C37.6295 40.8958 41.3958 37.1295 41.3958 32.5C41.3958 27.8705 37.6295 24.1042 33 24.1042ZM33 38.8645C29.4905 38.8645 26.6355 36.0095 26.6355 32.5C26.6355 28.9905 29.4905 26.1355 33 26.1355C36.5095 26.1355 39.3645 28.9905 39.3645 32.5C39.3645 36.0095 36.5095 38.8645 33 38.8645ZM63.8336 14.1494C64.2256 13.9986 64.4844 13.6218 64.4844 13.2016V10.5386C64.4844 10.1184 64.2256 9.74175 63.8336 9.5908L62.6847 9.1485C62.5021 8.54039 62.2586 7.95298 61.9567 7.39299L62.4568 6.26691C62.6273 5.88301 62.5439 5.43372 62.2467 5.13665L60.3636 3.25355C60.0667 2.95636 59.6171 2.87333 59.2332 3.04345L58.1076 3.54339C57.5475 3.24162 56.96 2.998 56.3513 2.81531L55.9092 1.66664C55.7584 1.27436 55.3816 1.01562 54.9614 1.01562H52.2983C51.8781 1.01562 51.5014 1.27436 51.3504 1.66639L50.9083 2.81531C50.3 2.99787 49.7125 3.24137 49.1524 3.54326L48.0264 3.04332C47.6425 2.8727 47.1932 2.95623 46.8962 3.2533L45.0131 5.13627C44.716 5.43334 44.6325 5.88275 44.803 6.26666L45.3032 7.39273C45.0014 7.95285 44.7578 8.54039 44.5752 9.14837L43.4263 9.59067C43.0341 9.74149 42.7755 10.1183 42.7755 10.5385V13.2016C42.7755 13.6218 43.0342 13.9985 43.4263 14.1494L44.5752 14.5917C44.7578 15.1998 45.0013 15.7873 45.3032 16.3472L44.8031 17.4733C44.6326 17.8572 44.716 18.3065 45.0132 18.6036L45.2366 18.827L43.1668 20.8969L42.5092 20.2391C42.2121 19.9418 41.7626 19.8586 41.3788 20.029L39.5216 20.854C38.605 20.3394 37.6337 19.9368 36.6232 19.6523L35.8938 17.7571C35.743 17.365 35.3662 17.1063 34.9459 17.1063H34.0156V7.97647C35.4822 7.53835 36.5547 6.17754 36.5547 4.57031C36.5547 2.61028 34.96 1.01562 33 1.01562C31.04 1.01562 29.4453 2.61028 29.4453 4.57031C29.4453 6.17754 30.5178 7.53835 31.9844 7.97647V17.1066H31.0542C30.634 17.1066 30.2573 17.3653 30.1064 17.7573L29.3768 19.653C28.3667 19.9372 27.3958 20.3398 26.4791 20.8543L24.6213 20.0293C24.2374 19.8586 23.788 19.9422 23.491 20.2392L22.8332 20.897L20.7635 18.8273L20.9868 18.604C21.2839 18.3069 21.3674 17.8575 21.1969 17.4736L20.697 16.348C20.9987 15.788 21.2424 15.2004 21.425 14.5916L22.5737 14.1496C22.9659 13.9987 23.2245 13.6219 23.2245 13.2017V10.5386C23.2245 10.1184 22.9658 9.74175 22.5737 9.5908L21.4248 9.1485C21.2422 8.54039 20.9986 7.95298 20.6968 7.39299L21.1969 6.26691C21.3674 5.88301 21.284 5.43372 20.9869 5.13665L19.104 3.25355C18.8069 2.95636 18.3574 2.87333 17.9736 3.04345L16.848 3.54339C16.2879 3.24162 15.7002 2.998 15.0916 2.81531L14.6496 1.66664C14.4986 1.27436 14.1218 1.01562 13.7016 1.01562H11.0386C10.6184 1.01562 10.2417 1.27436 10.0908 1.66639L9.64862 2.81531C9.04039 2.99787 8.45285 3.24137 7.89273 3.54326L6.76679 3.04332C6.38275 2.8727 5.93359 2.95623 5.63652 3.2533L3.7533 5.13627C3.45623 5.43334 3.3727 5.88275 3.54319 6.26666L4.04339 7.39273C3.74162 7.95285 3.498 8.54039 3.31544 9.14837L2.16651 9.59067C1.77436 9.74162 1.51562 10.1184 1.51562 10.5386V13.2017C1.51562 13.6219 1.77436 13.9986 2.16639 14.1496L3.31531 14.5919C3.49787 15.2 3.74137 15.7874 4.04326 16.3474L3.54319 17.4734C3.3727 17.8574 3.4561 18.3066 3.7533 18.6037L5.6364 20.4868C5.93347 20.784 6.38275 20.8677 6.76666 20.6969L7.89223 20.197C8.45234 20.4989 9.04001 20.7425 9.64862 20.925L10.0907 22.0737C10.2415 22.4658 10.6183 22.7245 11.0385 22.7245H13.7016C14.1217 22.7245 14.4985 22.4658 14.6494 22.0737L15.0917 20.9247C15.7 20.7421 16.2874 20.4985 16.8474 20.1967L17.9736 20.6968C18.3572 20.8674 18.8068 20.7839 19.1038 20.4868L19.3273 20.2634L21.397 22.3331L20.7392 22.9908C20.4422 23.288 20.3586 23.7373 20.5293 24.1212L21.3545 25.9792C20.84 26.896 20.4375 27.8667 20.1532 28.8764L18.2574 29.6061C17.8653 29.7569 17.6067 30.1337 17.6067 30.5539V31.4844H8.47634C8.03822 30.0178 6.67741 28.9453 5.07031 28.9453C3.11028 28.9453 1.51562 30.54 1.51562 32.5C1.51562 34.46 3.11028 36.0547 5.07031 36.0547C6.67741 36.0547 8.03822 34.9822 8.47634 33.5156H17.6066V34.4457C17.6066 34.8659 17.8653 35.2426 18.2573 35.3935L20.1532 36.1234C20.4375 37.133 20.84 38.1038 21.3545 39.0204L20.5293 40.8784C20.3586 41.2623 20.4422 41.7116 20.7392 42.0087L21.3971 42.6665L19.3271 44.7364L19.104 44.5132C18.8069 44.216 18.3574 44.133 17.9736 44.3031L16.848 44.803C16.2879 44.5013 15.7001 44.2575 15.0916 44.0751L14.6496 42.9264C14.4986 42.5342 14.1218 42.2755 13.7017 42.2755H11.0386C10.6184 42.2755 10.2417 42.5342 10.0908 42.9264L9.64862 44.0753C9.04026 44.2579 8.45272 44.5014 7.89273 44.8033L6.76679 44.3032C6.38288 44.1326 5.93359 44.2161 5.6364 44.5132L3.7533 46.3963C3.45623 46.6935 3.3727 47.1428 3.54319 47.5267L4.04326 48.6528C3.74149 49.2127 3.498 49.8002 3.31531 50.4083L2.16639 50.8506C1.77436 51.0014 1.51562 51.3782 1.51562 51.7984V54.4615C1.51562 54.8817 1.77436 55.2584 2.16639 55.4093L3.31531 55.8516C3.49787 56.4597 3.74149 57.0471 4.04326 57.6071L3.54319 58.7333C3.3727 59.1172 3.4561 59.5665 3.7533 59.8636L5.6364 61.7467C5.93359 62.044 6.38301 62.1272 6.76679 61.9568L7.89235 61.4569C8.45247 61.7588 9.04014 62.0024 9.64862 62.1849L10.0907 63.3336C10.2415 63.7256 10.6183 63.9844 11.0385 63.9844H13.7016C14.1217 63.9844 14.4985 63.7256 14.6494 63.3336L15.0917 62.1846C15.7 62.002 16.2874 61.7584 16.8474 61.4566L17.9736 61.9568C18.3575 62.1274 18.8069 62.044 19.104 61.7467L20.9871 59.8636C21.2841 59.5665 21.3677 59.1172 21.1972 58.7333L20.6972 57.6079C20.999 57.0478 21.2426 56.4602 21.4253 55.8515L22.5738 55.4095C22.966 55.2586 23.2247 54.8818 23.2247 54.4616V51.7984C23.2247 51.3782 22.966 51.0015 22.574 50.8506L21.425 50.4083C21.2425 49.8002 20.9989 49.2127 20.6971 48.6528L21.1972 47.5267C21.3677 47.1428 21.2843 46.6935 20.9872 46.3964L20.7637 46.173L22.8336 44.1031L23.4912 44.7608C23.7884 45.0581 24.2378 45.1412 24.6216 44.9709L26.4788 44.146C27.3958 44.6606 28.3667 45.0632 29.377 45.3474L30.1065 47.2427C30.2573 47.6348 30.6341 47.8936 31.0543 47.8936H31.9844V57.0238C30.5178 57.4619 29.4453 58.8227 29.4453 60.4298C29.4453 62.3898 31.04 63.9845 33 63.9845C34.96 63.9845 36.5547 62.3898 36.5547 60.4298C36.5547 58.8226 35.4822 57.4619 34.0156 57.0238V47.8936H34.9457C35.3658 47.8936 35.7426 47.6348 35.8935 47.2428L36.6234 45.3469C37.6332 45.0626 38.604 44.6601 39.5206 44.1457L41.3785 44.9709C41.7624 45.1415 42.2118 45.0579 42.5089 44.7609L43.1667 44.1031L45.2364 46.1729L45.0131 46.3962C44.716 46.6932 44.6325 47.1426 44.803 47.5266L45.3032 48.6526C45.0014 49.2127 44.7578 49.8003 44.5752 50.4083L43.4263 50.8506C43.0341 51.0014 42.7755 51.3782 42.7755 51.7984V54.4615C42.7755 54.8817 43.0342 55.2584 43.4263 55.4093L44.5752 55.8516C44.7578 56.4597 45.0013 57.0471 45.3032 57.6071L44.8031 58.7332C44.6326 59.1171 44.716 59.5664 45.0132 59.8635L46.8963 61.7466C47.1932 62.0438 47.6426 62.1273 48.0266 61.9567L49.1521 61.4567C49.7122 61.7586 50.2999 62.0023 50.9085 62.1848L51.3506 63.3335C51.5014 63.7255 51.8782 63.9842 52.2984 63.9842H54.9615C55.3816 63.9842 55.7584 63.7255 55.9093 63.3335L56.3516 62.1844C56.9599 62.0019 57.5473 61.7583 58.1073 61.4565L59.2335 61.9566C59.6172 62.1273 60.0667 62.0436 60.3637 61.7466L62.2468 59.8636C62.5439 59.5664 62.6274 59.1171 62.4568 58.7332L61.9569 57.6076C62.2588 57.0475 62.5024 56.4599 62.6849 55.8513L63.8336 55.4092C64.2256 55.2584 64.4844 54.8816 64.4844 54.4614V51.7983C64.4844 51.3781 64.2256 51.0014 63.8336 50.8504L62.6847 50.4081C62.5021 49.8 62.2586 49.2126 61.9567 48.6526L62.4568 47.5266C62.6273 47.1426 62.5439 46.6934 62.2467 46.3963L60.3636 44.5132C60.0667 44.216 59.6171 44.133 59.2332 44.3031L58.1076 44.803C57.5475 44.5013 56.9599 44.2576 56.3513 44.0751L55.9092 42.9264C55.7583 42.5342 55.3815 42.2755 54.9614 42.2755H52.2983C51.8781 42.2755 51.5014 42.5342 51.3504 42.9263L50.9083 44.0752C50.2999 44.2578 49.7124 44.5014 49.1524 44.8032L48.0264 44.3032C47.6425 44.1326 47.1932 44.2161 46.8962 44.5132L46.6727 44.7366L44.6029 42.6668L45.2605 42.0092C45.5576 41.712 45.6411 41.2627 45.4705 40.8788L44.6457 39.0217C45.1601 38.105 45.5626 37.134 45.8472 36.1235L47.7424 35.3939C48.1345 35.2431 48.3932 34.8663 48.3932 34.4461V33.5156H57.5234C57.9615 34.9822 59.3223 36.0547 60.9294 36.0547C62.8895 36.0547 64.4841 34.46 64.4841 32.5C64.4841 30.54 62.8895 28.9453 60.9294 28.9453C59.3223 28.9453 57.9615 30.0178 57.5234 31.4844H48.3932V30.5543C48.3932 30.1341 48.1345 29.7574 47.7424 29.6065L45.8465 28.8766C45.5621 27.8668 45.1597 26.896 44.6453 25.9794L45.4705 24.1215C45.641 23.7376 45.5576 23.2883 45.2604 22.9912L44.6026 22.3335L46.6725 20.2636L46.8958 20.4869C47.1927 20.7841 47.6421 20.8678 48.026 20.697L49.1516 20.1971C49.7117 20.499 50.2994 20.7426 50.908 20.9252L51.3501 22.0738C51.5009 22.4659 51.8777 22.7246 52.2979 22.7246H54.961C55.3811 22.7246 55.7579 22.4659 55.9088 22.0738L56.3511 20.9248C56.9594 20.7422 57.5468 20.4986 58.1068 20.1968L59.233 20.6969C59.6167 20.8675 60.0662 20.784 60.3632 20.4869L62.2463 18.604C62.5434 18.3069 62.6269 17.8575 62.4564 17.4736L61.9565 16.348C62.2584 15.7879 62.502 15.2004 62.6846 14.5916L63.8336 14.1494ZM31.4766 4.57031C31.4766 3.73026 32.16 3.04688 33 3.04688C33.84 3.04688 34.5234 3.73026 34.5234 4.57031C34.5234 5.41036 33.84 6.09388 33 6.09388C32.16 6.09388 31.4766 5.41036 31.4766 4.57031ZM18.1606 18.5575L17.2 18.1311C16.894 17.9951 16.5407 18.0187 16.2554 18.1944C15.5848 18.6073 14.8576 18.9089 14.094 19.0907C13.7683 19.1681 13.5017 19.4012 13.3814 19.7138L13.0042 20.6934H11.7359L11.3589 19.714C11.2387 19.4016 10.9721 19.1684 10.6462 19.091C9.88209 18.909 9.15465 18.6075 8.48408 18.1945C8.19882 18.019 7.84563 17.9954 7.53942 18.1312L6.5794 18.5574L5.68261 17.6606L6.10917 16.7002C6.24514 16.3941 6.2214 16.0407 6.04582 15.7555C5.63284 15.0848 5.33133 14.3575 5.14966 13.5941C5.07209 13.2685 4.839 13.0018 4.52645 12.8816L3.54688 12.5042V11.236L4.52645 10.8588C4.839 10.7386 5.07209 10.4719 5.14966 10.1462C5.33133 9.38272 5.63284 8.65554 6.04582 7.98459C6.2214 7.69945 6.24501 7.34614 6.10917 7.04006L5.68261 6.07979L6.57953 5.18286L7.5398 5.6093C7.84589 5.74514 8.19933 5.72152 8.48446 5.54595C9.15528 5.13284 9.8826 4.83133 10.646 4.64979C10.9719 4.57222 11.2385 4.33913 11.3588 4.02657L11.7359 3.04688H13.0042L13.3812 4.02619C13.5014 4.33862 13.768 4.57184 14.0939 4.64928C14.858 4.8312 15.5855 5.13284 16.2559 5.54569C16.5412 5.72152 16.8946 5.74514 17.2007 5.60917L18.1607 5.18286L19.0575 6.07966L18.6309 7.04006C18.495 7.34614 18.5187 7.69958 18.6943 7.98472C19.1073 8.65541 19.4088 9.38272 19.5904 10.1461C19.668 10.4717 19.9011 10.7385 20.2137 10.8587L21.1934 11.236V12.5042L20.214 12.8813C19.9015 13.0015 19.6684 13.2683 19.5908 13.594C19.409 14.3583 19.1075 15.0856 18.6947 15.7558C18.519 16.0409 18.4952 16.3945 18.6312 16.7006L19.0575 17.6606L18.1606 18.5575ZM5.07031 34.0234C4.23026 34.0234 3.54688 33.34 3.54688 32.5C3.54688 31.66 4.23026 30.9766 5.07031 30.9766C5.91036 30.9766 6.59375 31.66 6.59375 32.5C6.59375 33.34 5.91036 34.0234 5.07031 34.0234ZM21.1934 52.4958V53.7641L20.2142 54.1411C19.9016 54.2613 19.6684 54.528 19.5908 54.8538C19.409 55.618 19.1075 56.3454 18.6947 57.0157C18.519 57.3008 18.4952 57.6544 18.6312 57.9604L19.0575 58.9205L18.1606 59.8173L17.2002 59.3907C16.8942 59.2547 16.5407 59.2783 16.2555 59.4541C15.585 59.8669 14.8578 60.1685 14.0941 60.3503C13.7684 60.4278 13.5018 60.6609 13.3816 60.9734L13.0042 61.9531H11.7359L11.3589 60.9738C11.2387 60.6614 10.9721 60.4282 10.6462 60.3507C9.88209 60.1688 9.15465 59.8673 8.48408 59.4543C8.19869 59.2786 7.84525 59.2552 7.53942 59.391L6.57953 59.8173L5.68261 58.9205L6.10917 57.9599C6.24514 57.6539 6.2214 57.3004 6.04582 57.0153C5.63284 56.3446 5.33133 55.6173 5.14966 54.8539C5.07209 54.5283 4.839 54.2615 4.52645 54.1413L3.54688 53.764V52.4958L4.52645 52.1186C4.839 51.9983 5.07209 51.7316 5.14966 51.406C5.33133 50.6425 5.63284 49.9153 6.04582 49.2446C6.2214 48.9595 6.24514 48.606 6.10917 48.2999L5.68261 47.3396L6.57953 46.4428L7.5398 46.8692C7.84602 47.0052 8.19933 46.9814 8.48459 46.8057C9.15516 46.3929 9.88234 46.0913 10.646 45.9097C10.9719 45.8321 11.2385 45.599 11.3588 45.2863L11.7359 44.3068H13.0041L13.381 45.2861C13.5014 45.5988 13.768 45.832 14.0939 45.9094C14.8579 46.0911 15.5852 46.3926 16.2558 46.8056C16.541 46.9814 16.8945 47.005 17.2006 46.8691L18.1606 46.4428L19.0574 47.3396L18.6308 48.2999C18.4948 48.606 18.5186 48.9595 18.6942 49.2446C19.1071 49.9153 19.4087 50.6426 19.5903 51.406C19.6679 51.7316 19.901 51.9983 20.2135 52.1186L21.1934 52.4958ZM34.5234 60.4297C34.5234 61.2697 33.84 61.9531 33 61.9531C32.16 61.9531 31.4766 61.2697 31.4766 60.4297C31.4766 59.5896 32.16 58.9062 33 58.9062C33.84 58.9062 34.5234 59.5896 34.5234 60.4297ZM47.8394 46.4424L48.7997 46.8688C49.1058 47.0046 49.4592 46.981 49.7444 46.8055C50.4149 46.3926 51.1421 46.0911 51.906 45.9092C52.2317 45.8317 52.4983 45.5985 52.6186 45.2861L52.9956 44.3065H54.264L54.6409 45.2858C54.7613 45.5985 55.0279 45.8317 55.3538 45.9092C56.1179 46.0908 56.8452 46.3924 57.5157 46.8053C57.8011 46.9812 58.1545 47.0048 58.4604 46.8688L59.4205 46.4425L60.3173 47.3393L59.8907 48.2997C59.7547 48.6058 59.7785 48.9592 59.9541 49.2444C60.367 49.9151 60.6685 50.6424 60.8502 51.4057C60.9278 51.7314 61.1609 51.9981 61.4734 52.1183L62.453 52.4955V53.7638L61.4737 54.1408C61.1611 54.261 60.928 54.5278 60.8505 54.8535C60.6687 55.6175 60.3672 56.3448 59.9542 57.0154C59.7786 57.3007 59.7549 57.6541 59.8908 57.9602L60.3171 58.9202L59.4202 59.8169L58.4597 59.3904C58.1536 59.2545 57.8003 59.2781 57.515 59.4538C56.8445 59.8666 56.1173 60.1683 55.3537 60.3501C55.0279 60.4275 54.7613 60.6606 54.6411 60.9732L54.264 61.9531H52.9956L52.6187 60.9738C52.4985 60.6614 52.2319 60.4282 51.906 60.3507C51.1419 60.1688 50.4144 59.8673 49.7438 59.4543C49.4586 59.2787 49.1054 59.2551 48.7992 59.391L47.8392 59.8171L46.9424 58.9203L47.3689 57.9599C47.5049 57.6539 47.4812 57.3004 47.3056 57.0153C46.8926 56.3446 46.5911 55.6173 46.4094 54.8539C46.3319 54.5283 46.0988 54.2615 45.7862 54.1413L44.8066 53.764V52.4958L45.7862 52.1186C46.0988 51.9983 46.3319 51.7316 46.4094 51.406C46.5911 50.6425 46.8926 49.9153 47.3056 49.2444C47.4812 48.9592 47.5048 48.6059 47.3689 48.2998L46.9424 47.3396L47.8394 46.4424ZM60.9297 30.9766C61.7697 30.9766 62.4531 31.66 62.4531 32.5C62.4531 33.34 61.7697 34.0234 60.9297 34.0234C60.0896 34.0234 59.4062 33.34 59.4062 32.5C59.4062 31.66 60.0896 30.9766 60.9297 30.9766ZM46.3622 31.2515V33.7485L44.6308 34.415C44.3184 34.5352 44.0852 34.8019 44.0076 35.1277C43.7302 36.293 43.2705 37.402 42.6411 38.4241C42.4654 38.7094 42.4416 39.0628 42.5776 39.3689L43.3312 41.0657L41.5657 42.8312L39.8682 42.0773C39.5621 41.9414 39.2086 41.9651 38.9235 42.1407C37.901 42.7703 36.7922 43.23 35.6278 43.5072C35.302 43.5847 35.0354 43.8177 34.9152 44.1303L34.2486 45.8622H31.7517L31.0853 44.1309C30.9649 43.8183 30.6983 43.5852 30.3726 43.5077C29.2075 43.2305 28.0983 42.7706 27.0759 42.1411C26.7906 41.9654 26.4372 41.9416 26.1312 42.0777L24.4345 42.8313L22.6689 41.0657L23.4228 39.3682C23.5588 39.0621 23.535 38.7086 23.3593 38.4235C22.7299 37.401 22.27 36.2922 21.9929 35.1278C21.9153 34.8022 21.6823 34.5354 21.3697 34.4152L19.6378 33.7486V31.2517L21.3696 30.585C21.6821 30.4648 21.9152 30.1981 21.9928 29.8725C22.2699 28.708 22.7296 27.5992 23.3592 26.5766C23.5348 26.2914 23.5585 25.938 23.4225 25.632L22.6687 23.9345L24.4343 22.1689L26.1317 22.9228C26.4378 23.0586 26.7914 23.0351 27.0765 22.8593C28.0988 22.2297 29.2078 21.77 30.3723 21.493C30.6981 21.4155 30.9648 21.1824 31.085 20.8698L31.7515 19.1381H34.2483L34.9147 20.8694C35.0349 21.182 35.3017 21.4151 35.6274 21.4925C36.7929 21.7699 37.9019 22.2297 38.924 22.8592C39.2093 23.035 39.5628 23.0587 39.8688 22.9227L41.5657 22.1689L43.3312 23.9345L42.5773 25.6318C42.4414 25.9379 42.4651 26.2914 42.6408 26.5765C43.2704 27.599 43.7301 28.7078 44.0072 29.8722C44.0848 30.1978 44.3179 30.4646 44.6304 30.5848L46.3622 31.2515ZM62.4531 12.5042L61.4738 12.8813C61.1614 13.0015 60.9282 13.2683 60.8506 13.594C60.6688 14.3581 60.3673 15.0855 59.9543 15.7558C59.7786 16.0409 59.7549 16.3945 59.8908 16.7006L60.3171 17.6606L59.4202 18.5574L58.4597 18.1309C58.1536 17.995 57.8003 18.0186 57.515 18.1943C56.8445 18.6071 56.1173 18.9088 55.3537 19.0906C55.0279 19.168 54.7613 19.4011 54.6411 19.7137L54.264 20.6934H52.9956L52.6187 19.714C52.4985 19.4016 52.2319 19.1684 51.906 19.091C51.1419 18.909 50.4144 18.6075 49.7438 18.1945C49.4586 18.019 49.1054 17.9954 48.7992 18.1312L47.8392 18.5574L46.9424 17.6606L47.3689 16.7002C47.5049 16.3941 47.4812 16.0407 47.3056 15.7555C46.8926 15.0848 46.5911 14.3575 46.4094 13.5941C46.3319 13.2685 46.0988 13.0018 45.7862 12.8816L44.8066 12.5042V11.236L45.7862 10.8588C46.0988 10.7386 46.3319 10.4719 46.4094 10.1462C46.5911 9.38272 46.8926 8.65554 47.3056 7.98459C47.4812 7.69945 47.5048 7.34614 47.3689 7.04006L46.9424 6.07979L47.8393 5.18286L48.7996 5.6093C49.1057 5.74514 49.4591 5.72152 49.7442 5.54595C50.415 5.13284 51.1422 4.83146 51.9057 4.64979C52.2315 4.57222 52.4982 4.33913 52.6184 4.02657L52.9955 3.047H54.2639L54.6408 4.02632C54.761 4.33875 55.0276 4.57196 55.3535 4.6494C56.1178 4.83133 56.8452 5.13297 57.5155 5.54582C57.8009 5.72165 58.1544 5.74526 58.4603 5.6093L59.4203 5.18299L60.3171 6.07979L59.8906 7.04019C59.7546 7.34627 59.7783 7.69971 59.9539 7.98484C60.3669 8.65554 60.6684 9.38285 60.8501 10.1462C60.9277 10.4719 61.1607 10.7386 61.4733 10.8588L62.4531 11.236V12.5042ZM53.6299 5.80417C50.2852 5.80417 47.5639 8.52541 47.5639 11.8701C47.5639 15.2148 50.2852 17.9361 53.6299 17.9361C56.9746 17.9361 59.6958 15.2148 59.6958 11.8701C59.6958 8.52541 56.9746 5.80417 53.6299 5.80417ZM53.6299 15.9048C51.4052 15.9048 49.5952 14.0948 49.5952 11.8701C49.5952 9.64539 51.4052 7.83542 53.6299 7.83542C55.8546 7.83542 57.6646 9.64539 57.6646 11.8701C57.6646 14.0948 55.8546 15.9048 53.6299 15.9048ZM12.3701 5.80417C9.02541 5.80417 6.30417 8.52541 6.30417 11.8701C6.30417 15.2148 9.02541 17.9361 12.3701 17.9361C15.7148 17.9361 18.4361 15.2148 18.4361 11.8701C18.4361 8.52541 15.7148 5.80417 12.3701 5.80417ZM12.3701 15.9048C10.1454 15.9048 8.33542 14.0948 8.33542 11.8701C8.33542 9.64539 10.1454 7.83542 12.3701 7.83542C14.5948 7.83542 16.4048 9.64539 16.4048 11.8701C16.4048 14.0948 14.5948 15.9048 12.3701 15.9048ZM53.6299 59.1958C56.9746 59.1958 59.6958 56.4746 59.6958 53.1299C59.6958 49.7852 56.9746 47.0639 53.6299 47.0639C50.2852 47.0639 47.5639 49.7852 47.5639 53.1299C47.5639 56.4746 50.2852 59.1958 53.6299 59.1958ZM53.6299 49.0952C55.8546 49.0952 57.6646 50.9052 57.6646 53.1299C57.6646 55.3546 55.8546 57.1646 53.6299 57.1646C51.4052 57.1646 49.5952 55.3546 49.5952 53.1299C49.5952 50.9052 51.4052 49.0952 53.6299 49.0952ZM12.3701 47.0641C9.02541 47.0641 6.30417 49.7853 6.30417 53.1299C6.30417 56.4747 9.02541 59.1958 12.3701 59.1958C15.7148 59.1958 18.4361 56.4746 18.4361 53.1299C18.4361 49.7852 15.7148 47.0641 12.3701 47.0641ZM12.3701 57.1646C10.1454 57.1646 8.33542 55.3546 8.33542 53.1299C8.33542 50.9053 10.1454 49.0953 12.3701 49.0953C14.5948 49.0953 16.4048 50.9053 16.4048 53.1299C16.4048 55.3546 14.5948 57.1646 12.3701 57.1646Z" fill="#2386BC"/>
</svg>
