<svg width="30" height="30" viewBox="0 0 30 30" fill="none" xmlns="http://www.w3.org/2000/svg">
<path fill-rule="evenodd" clip-rule="evenodd" d="M23.2071 6.79289C23.5976 7.18342 23.5976 7.81658 23.2071 8.20711L8.20711 23.2071C7.81658 23.5976 7.18342 23.5976 6.79289 23.2071C6.40237 22.8166 6.40237 22.1834 6.79289 21.7929L21.7929 6.79289C22.1834 6.40237 22.8166 6.40237 23.2071 6.79289Z" fill="#DDDDDD"/>
<path fill-rule="evenodd" clip-rule="evenodd" d="M6.79289 6.79289C7.18342 6.40237 7.81658 6.40237 8.20711 6.79289L23.2071 21.7929C23.5976 22.1834 23.5976 22.8166 23.2071 23.2071C22.8166 23.5976 22.1834 23.5976 21.7929 23.2071L6.79289 8.20711C6.40237 7.81658 6.40237 7.18342 6.79289 6.79289Z" fill="#DDDDDD"/>
</svg>
